<mxfile host="app.diagrams.net" modified="2024-08-09T05:08:31.057Z" agent="Mozilla/5.0 (Windows NT 10.0; Win64; x64) AppleWebKit/537.36 (KHTML, like Gecko) Chrome/127.0.0.0 Safari/537.36" etag="KFs_mXfAWS88iF_Ls5IN" version="24.5.4" type="device">
  <diagram name="Seite-1" id="l7FJD7KelzXNzg7OMOdq">
    <mxGraphModel dx="2038" dy="2408" grid="1" gridSize="10" guides="1" tooltips="1" connect="1" arrows="1" fold="1" page="1" pageScale="1" pageWidth="827" pageHeight="1169" math="0" shadow="0">
      <root>
        <mxCell id="0" />
        <mxCell id="1" parent="0" />
        <mxCell id="kaKPPBhv6QyS-EkI_fyc-1" value="" style="rounded=0;whiteSpace=wrap;html=1;strokeColor=#007fff;fontColor=#007fff;strokeWidth=3;" parent="1" vertex="1">
          <mxGeometry x="50" y="-20" width="1850" height="1210" as="geometry" />
        </mxCell>
        <mxCell id="kaKPPBhv6QyS-EkI_fyc-2" value="Organspende-&lt;br&gt;register" style="rounded=0;whiteSpace=wrap;html=1;" parent="1" vertex="1">
          <mxGeometry x="150" y="190" width="120" height="60" as="geometry" />
        </mxCell>
        <mxCell id="kaKPPBhv6QyS-EkI_fyc-51" value="" style="edgeStyle=orthogonalEdgeStyle;rounded=1;orthogonalLoop=1;jettySize=auto;html=1;curved=1;exitX=0.466;exitY=1.001;exitDx=0;exitDy=0;exitPerimeter=0;" parent="1" source="kaKPPBhv6QyS-EkI_fyc-4" target="kaKPPBhv6QyS-EkI_fyc-50" edge="1">
          <mxGeometry relative="1" as="geometry">
            <Array as="points">
              <mxPoint x="440" y="670" />
            </Array>
          </mxGeometry>
        </mxCell>
        <mxCell id="kaKPPBhv6QyS-EkI_fyc-83" style="edgeStyle=orthogonalEdgeStyle;rounded=0;orthogonalLoop=1;jettySize=auto;html=1;exitX=1;exitY=0.75;exitDx=0;exitDy=0;entryX=1;entryY=0.5;entryDx=0;entryDy=0;" parent="1" source="kaKPPBhv6QyS-EkI_fyc-4" target="kaKPPBhv6QyS-EkI_fyc-20" edge="1">
          <mxGeometry relative="1" as="geometry" />
        </mxCell>
        <mxCell id="kaKPPBhv6QyS-EkI_fyc-4" value="" style="rounded=0;whiteSpace=wrap;html=1;" parent="1" vertex="1">
          <mxGeometry x="390" y="190" width="130" height="480" as="geometry" />
        </mxCell>
        <mxCell id="kaKPPBhv6QyS-EkI_fyc-6" style="edgeStyle=orthogonalEdgeStyle;rounded=0;orthogonalLoop=1;jettySize=auto;html=1;entryX=0.5;entryY=0;entryDx=0;entryDy=0;" parent="1" edge="1">
          <mxGeometry relative="1" as="geometry">
            <mxPoint x="625" y="320" as="sourcePoint" />
            <mxPoint x="625" y="320" as="targetPoint" />
          </mxGeometry>
        </mxCell>
        <mxCell id="kaKPPBhv6QyS-EkI_fyc-8" value="OSE" style="rounded=0;whiteSpace=wrap;html=1;" parent="1" vertex="1">
          <mxGeometry x="412.5" y="290" width="72.5" height="30" as="geometry" />
        </mxCell>
        <mxCell id="kaKPPBhv6QyS-EkI_fyc-67" value="" style="edgeStyle=orthogonalEdgeStyle;rounded=1;orthogonalLoop=1;jettySize=auto;html=1;entryX=1;entryY=0.5;entryDx=0;entryDy=0;curved=0;" parent="1" source="kaKPPBhv6QyS-EkI_fyc-17" target="kaKPPBhv6QyS-EkI_fyc-60" edge="1">
          <mxGeometry relative="1" as="geometry">
            <mxPoint x="561.25" y="355" as="targetPoint" />
            <Array as="points">
              <mxPoint x="550" y="355" />
              <mxPoint x="550" y="165" />
            </Array>
          </mxGeometry>
        </mxCell>
        <mxCell id="kaKPPBhv6QyS-EkI_fyc-17" value="eRP" style="rounded=0;whiteSpace=wrap;html=1;" parent="1" vertex="1">
          <mxGeometry x="412.5" y="340" width="72.5" height="30" as="geometry" />
        </mxCell>
        <mxCell id="kaKPPBhv6QyS-EkI_fyc-18" value="ePA" style="rounded=0;whiteSpace=wrap;html=1;" parent="1" vertex="1">
          <mxGeometry x="412.5" y="390" width="72.5" height="80" as="geometry" />
        </mxCell>
        <mxCell id="kaKPPBhv6QyS-EkI_fyc-19" value="KTR-&lt;br&gt;Funktionen" style="rounded=0;whiteSpace=wrap;html=1;" parent="1" vertex="1">
          <mxGeometry x="412.5" y="620" width="72.5" height="40" as="geometry" />
        </mxCell>
        <mxCell id="kaKPPBhv6QyS-EkI_fyc-21" value="TIM" style="rounded=0;whiteSpace=wrap;html=1;" parent="1" vertex="1">
          <mxGeometry x="412.5" y="490" width="72.5" height="30" as="geometry" />
        </mxCell>
        <mxCell id="kaKPPBhv6QyS-EkI_fyc-27" value="" style="rounded=0;whiteSpace=wrap;html=1;" parent="1" vertex="1">
          <mxGeometry x="230" y="408" width="40" height="50" as="geometry" />
        </mxCell>
        <mxCell id="kaKPPBhv6QyS-EkI_fyc-28" value="Versicherter" style="shape=umlActor;verticalLabelPosition=bottom;verticalAlign=top;html=1;" parent="1" vertex="1">
          <mxGeometry x="240" y="415.25" width="20" height="37.5" as="geometry" />
        </mxCell>
        <mxCell id="kaKPPBhv6QyS-EkI_fyc-31" value="Nationales Gesundheitsportal" style="rounded=0;whiteSpace=wrap;html=1;" parent="1" vertex="1">
          <mxGeometry x="150" y="585" width="120" height="60" as="geometry" />
        </mxCell>
        <mxCell id="kaKPPBhv6QyS-EkI_fyc-32" value="Backends der&lt;br&gt;Kostentäger" style="rounded=0;whiteSpace=wrap;html=1;" parent="1" vertex="1">
          <mxGeometry x="150" y="660" width="120" height="60" as="geometry" />
        </mxCell>
        <mxCell id="kaKPPBhv6QyS-EkI_fyc-20" value="NGP" style="rounded=0;whiteSpace=wrap;html=1;" parent="1" vertex="1">
          <mxGeometry x="412.5" y="540" width="72.5" height="30" as="geometry" />
        </mxCell>
        <mxCell id="kaKPPBhv6QyS-EkI_fyc-39" value="" style="ellipse;whiteSpace=wrap;html=1;aspect=fixed;" parent="1" vertex="1">
          <mxGeometry x="340" y="260" width="10" height="10" as="geometry" />
        </mxCell>
        <mxCell id="kaKPPBhv6QyS-EkI_fyc-42" value="" style="endArrow=none;html=1;rounded=1;entryX=0.5;entryY=0;entryDx=0;entryDy=0;curved=0;" parent="1" target="kaKPPBhv6QyS-EkI_fyc-39" edge="1">
          <mxGeometry width="50" height="50" relative="1" as="geometry">
            <mxPoint x="270" y="220" as="sourcePoint" />
            <mxPoint x="320" y="170" as="targetPoint" />
            <Array as="points">
              <mxPoint x="345" y="220" />
            </Array>
          </mxGeometry>
        </mxCell>
        <mxCell id="kaKPPBhv6QyS-EkI_fyc-43" value="" style="ellipse;whiteSpace=wrap;html=1;aspect=fixed;" parent="1" vertex="1">
          <mxGeometry x="330" y="585" width="10" height="10" as="geometry" />
        </mxCell>
        <mxCell id="kaKPPBhv6QyS-EkI_fyc-45" value="" style="endArrow=none;html=1;rounded=1;entryX=0.5;entryY=1;entryDx=0;entryDy=0;curved=0;" parent="1" target="kaKPPBhv6QyS-EkI_fyc-43" edge="1">
          <mxGeometry width="50" height="50" relative="1" as="geometry">
            <mxPoint x="270" y="620" as="sourcePoint" />
            <mxPoint x="320" y="570" as="targetPoint" />
            <Array as="points">
              <mxPoint x="335" y="620" />
            </Array>
          </mxGeometry>
        </mxCell>
        <mxCell id="kaKPPBhv6QyS-EkI_fyc-46" value="" style="endArrow=none;html=1;rounded=1;exitX=0.5;exitY=0;exitDx=0;exitDy=0;entryX=0;entryY=0.5;entryDx=0;entryDy=0;curved=0;" parent="1" source="kaKPPBhv6QyS-EkI_fyc-43" target="kaKPPBhv6QyS-EkI_fyc-20" edge="1">
          <mxGeometry width="50" height="50" relative="1" as="geometry">
            <mxPoint x="361.57" y="610" as="sourcePoint" />
            <mxPoint x="411.57" y="560" as="targetPoint" />
            <Array as="points">
              <mxPoint x="335" y="555" />
            </Array>
          </mxGeometry>
        </mxCell>
        <mxCell id="kaKPPBhv6QyS-EkI_fyc-47" value="" style="ellipse;whiteSpace=wrap;html=1;aspect=fixed;" parent="1" vertex="1">
          <mxGeometry x="330" y="660" width="10" height="10" as="geometry" />
        </mxCell>
        <mxCell id="kaKPPBhv6QyS-EkI_fyc-48" value="" style="endArrow=none;html=1;rounded=1;entryX=0.5;entryY=1;entryDx=0;entryDy=0;curved=0;" parent="1" target="kaKPPBhv6QyS-EkI_fyc-47" edge="1">
          <mxGeometry width="50" height="50" relative="1" as="geometry">
            <mxPoint x="270" y="695" as="sourcePoint" />
            <mxPoint x="320" y="645" as="targetPoint" />
            <Array as="points">
              <mxPoint x="335" y="695" />
            </Array>
          </mxGeometry>
        </mxCell>
        <mxCell id="kaKPPBhv6QyS-EkI_fyc-49" value="" style="endArrow=none;html=1;rounded=1;exitX=0.5;exitY=0;exitDx=0;exitDy=0;curved=0;" parent="1" source="kaKPPBhv6QyS-EkI_fyc-47" edge="1">
          <mxGeometry width="50" height="50" relative="1" as="geometry">
            <mxPoint x="361.57" y="690" as="sourcePoint" />
            <mxPoint x="411.57" y="640" as="targetPoint" />
            <Array as="points">
              <mxPoint x="335" y="640" />
            </Array>
          </mxGeometry>
        </mxCell>
        <mxCell id="kaKPPBhv6QyS-EkI_fyc-52" value="" style="edgeStyle=orthogonalEdgeStyle;rounded=1;orthogonalLoop=1;jettySize=auto;html=1;exitX=0.536;exitY=-0.019;exitDx=0;exitDy=0;exitPerimeter=0;curved=1;" parent="1" source="kaKPPBhv6QyS-EkI_fyc-50" edge="1">
          <mxGeometry relative="1" as="geometry">
            <mxPoint x="470.9999999999998" y="700" as="sourcePoint" />
            <mxPoint x="460" y="670" as="targetPoint" />
          </mxGeometry>
        </mxCell>
        <mxCell id="kaKPPBhv6QyS-EkI_fyc-50" value="eGK" style="strokeWidth=2;html=1;shape=mxgraph.flowchart.terminator;whiteSpace=wrap;" parent="1" vertex="1">
          <mxGeometry x="410" y="700" width="80" height="40" as="geometry" />
        </mxCell>
        <mxCell id="kaKPPBhv6QyS-EkI_fyc-54" value="&lt;font style=&quot;font-size: 14px;&quot;&gt;&amp;nbsp; Anwendungen:&lt;br&gt;&lt;ul&gt;&lt;li&gt;ePA - Elektronische Patientenkarte&lt;/li&gt;&lt;li&gt;TIM - TI Messenger&lt;/li&gt;&lt;li&gt;OSE - Organspendeerklärung&lt;/li&gt;&lt;li&gt;NGP - Nationales Gesundheitsportal&lt;/li&gt;&lt;li&gt;Auth -&amp;nbsp; Authentisierung&lt;/li&gt;&lt;li&gt;eRP - eRezept&lt;/li&gt;&lt;/ul&gt;&lt;/font&gt;" style="rounded=0;whiteSpace=wrap;html=1;align=left;" parent="1" vertex="1">
          <mxGeometry x="227" y="800" width="300" height="160" as="geometry" />
        </mxCell>
        <mxCell id="kaKPPBhv6QyS-EkI_fyc-55" value="&lt;font style=&quot;font-size: 15px;&quot;&gt;Legende&lt;/font&gt;:&lt;br&gt;&lt;span style=&quot;color: rgb(0, 204, 0); background-color: initial;&quot;&gt;&lt;br&gt;&amp;nbsp; (grün) Anmerkung&lt;/span&gt;" style="rounded=0;whiteSpace=wrap;html=1;align=left;" parent="1" vertex="1">
          <mxGeometry x="91" y="800" width="120" height="70" as="geometry" />
        </mxCell>
        <mxCell id="kaKPPBhv6QyS-EkI_fyc-58" value="Sektoraler IDP" style="rounded=0;whiteSpace=wrap;html=1;" parent="1" vertex="1">
          <mxGeometry x="915" y="60" width="90" height="50" as="geometry" />
        </mxCell>
        <mxCell id="kaKPPBhv6QyS-EkI_fyc-60" value="eRP- Fachdienst" style="rounded=0;whiteSpace=wrap;html=1;" parent="1" vertex="1">
          <mxGeometry x="860" y="140" width="100" height="50" as="geometry" />
        </mxCell>
        <mxCell id="kaKPPBhv6QyS-EkI_fyc-61" value="SigD" style="rounded=0;whiteSpace=wrap;html=1;" parent="1" vertex="1">
          <mxGeometry x="710" y="180" width="90" height="50" as="geometry" />
        </mxCell>
        <mxCell id="kaKPPBhv6QyS-EkI_fyc-79" value="TIM Fachdienst" style="rounded=0;whiteSpace=wrap;html=1;strokeWidth=2;" parent="1" vertex="1">
          <mxGeometry x="860" y="938" width="120" height="60" as="geometry" />
        </mxCell>
        <mxCell id="kaKPPBhv6QyS-EkI_fyc-80" value="FHIR VZD" style="rounded=0;whiteSpace=wrap;html=1;strokeWidth=2;" parent="1" vertex="1">
          <mxGeometry x="860.5" y="1018" width="120" height="60" as="geometry" />
        </mxCell>
        <mxCell id="kaKPPBhv6QyS-EkI_fyc-74" value="Access Gateway" style="rounded=0;whiteSpace=wrap;html=1;rotation=-90;" parent="1" vertex="1">
          <mxGeometry x="600" y="435" width="220" height="30" as="geometry" />
        </mxCell>
        <mxCell id="kaKPPBhv6QyS-EkI_fyc-88" value="" style="rounded=0;whiteSpace=wrap;html=1;strokeColor=#FF3333;strokeWidth=4;" parent="1" vertex="1">
          <mxGeometry x="760" y="338" width="400" height="572" as="geometry" />
        </mxCell>
        <mxCell id="kaKPPBhv6QyS-EkI_fyc-89" value="" style="endArrow=none;html=1;rounded=0;entryX=0.675;entryY=1.019;entryDx=0;entryDy=0;entryPerimeter=0;exitX=0.418;exitY=-0.003;exitDx=0;exitDy=0;exitPerimeter=0;" parent="1" source="kaKPPBhv6QyS-EkI_fyc-88" target="kaKPPBhv6QyS-EkI_fyc-60" edge="1">
          <mxGeometry width="50" height="50" relative="1" as="geometry">
            <mxPoint x="895" y="330" as="sourcePoint" />
            <mxPoint x="900" y="190" as="targetPoint" />
          </mxGeometry>
        </mxCell>
        <mxCell id="kaKPPBhv6QyS-EkI_fyc-92" value="&lt;font style=&quot;font-size: 13px;&quot;&gt;Device Management&lt;/font&gt;" style="rounded=0;whiteSpace=wrap;html=1;strokeWidth=2;" parent="1" vertex="1">
          <mxGeometry x="792.5" y="360" width="110" height="40" as="geometry" />
        </mxCell>
        <mxCell id="kaKPPBhv6QyS-EkI_fyc-95" value="&lt;font style=&quot;font-size: 13px;&quot;&gt;Devices&lt;/font&gt;" style="strokeWidth=2;html=1;shape=mxgraph.flowchart.terminator;whiteSpace=wrap;" parent="1" vertex="1">
          <mxGeometry x="805" y="425" width="85" height="20" as="geometry" />
        </mxCell>
        <mxCell id="kaKPPBhv6QyS-EkI_fyc-96" value="&lt;font style=&quot;font-size: 13px;&quot;&gt;Consents&lt;/font&gt;" style="strokeWidth=2;html=1;shape=mxgraph.flowchart.terminator;whiteSpace=wrap;strokeColor=#FF3333;" parent="1" vertex="1">
          <mxGeometry x="1038.13" y="425" width="73.75" height="20" as="geometry" />
        </mxCell>
        <mxCell id="kaKPPBhv6QyS-EkI_fyc-97" value="&lt;font style=&quot;font-size: 13px;&quot;&gt;Entitlement Management&lt;/font&gt;" style="rounded=0;whiteSpace=wrap;html=1;strokeWidth=2;" parent="1" vertex="1">
          <mxGeometry x="780" y="465" width="100" height="45" as="geometry" />
        </mxCell>
        <mxCell id="kaKPPBhv6QyS-EkI_fyc-98" value="&lt;font style=&quot;font-size: 13px;&quot;&gt;Authorization Service&lt;/font&gt;" style="rounded=0;whiteSpace=wrap;html=1;strokeWidth=2;" parent="1" vertex="1">
          <mxGeometry x="970" y="520" width="100" height="50" as="geometry" />
        </mxCell>
        <mxCell id="kaKPPBhv6QyS-EkI_fyc-99" value="&lt;font style=&quot;font-size: 13px;&quot;&gt;Audit Event Service&lt;/font&gt;" style="rounded=0;whiteSpace=wrap;html=1;strokeWidth=2;" parent="1" vertex="1">
          <mxGeometry x="780" y="585" width="95" height="40" as="geometry" />
        </mxCell>
        <mxCell id="kaKPPBhv6QyS-EkI_fyc-100" value="&lt;font style=&quot;font-size: 13px;&quot;&gt;Entitlements&lt;/font&gt;" style="strokeWidth=2;html=1;shape=mxgraph.flowchart.terminator;whiteSpace=wrap;strokeColor=#007FFF;" parent="1" vertex="1">
          <mxGeometry x="902.5" y="473" width="77.5" height="28" as="geometry" />
        </mxCell>
        <mxCell id="kaKPPBhv6QyS-EkI_fyc-101" value="&lt;font style=&quot;font-size: 13px;&quot;&gt;Secure Entitlement&lt;br&gt;Storage Key&lt;/font&gt;" style="strokeWidth=2;html=1;shape=mxgraph.flowchart.terminator;fontColor=#007FFF;strokeColor=#007fff;" parent="1" vertex="1">
          <mxGeometry x="773.75" y="530" width="126.25" height="45" as="geometry" />
        </mxCell>
        <mxCell id="kaKPPBhv6QyS-EkI_fyc-102" value="&lt;font style=&quot;font-size: 13px;&quot;&gt;Audit Events&lt;/font&gt;" style="strokeWidth=2;html=1;shape=mxgraph.flowchart.terminator;whiteSpace=wrap;strokeColor=#FF3333;" parent="1" vertex="1">
          <mxGeometry x="781" y="650" width="90" height="20" as="geometry" />
        </mxCell>
        <mxCell id="kaKPPBhv6QyS-EkI_fyc-105" value="" style="rounded=0;whiteSpace=wrap;html=1;strokeWidth=2;" parent="1" vertex="1">
          <mxGeometry x="920" y="590" width="100" height="50" as="geometry" />
        </mxCell>
        <mxCell id="kaKPPBhv6QyS-EkI_fyc-106" value="&lt;font style=&quot;font-size: 13px;&quot;&gt;Health Record Relocation Service&lt;/font&gt;" style="rounded=0;whiteSpace=wrap;html=1;strokeWidth=2;" parent="1" vertex="1">
          <mxGeometry x="781.25" y="710" width="97.5" height="50" as="geometry" />
        </mxCell>
        <mxCell id="kaKPPBhv6QyS-EkI_fyc-107" value="&lt;font style=&quot;font-size: 13px;&quot;&gt;XDS Document Service&lt;/font&gt;" style="rounded=0;whiteSpace=wrap;html=1;strokeWidth=2;" parent="1" vertex="1">
          <mxGeometry x="900" y="730" width="100" height="50" as="geometry" />
        </mxCell>
        <mxCell id="kaKPPBhv6QyS-EkI_fyc-108" value="&lt;font style=&quot;font-size: 13px;&quot;&gt;Constraint Management&lt;/font&gt;" style="rounded=0;whiteSpace=wrap;html=1;strokeWidth=2;" parent="1" vertex="1">
          <mxGeometry x="900" y="796.88" width="100" height="50" as="geometry" />
        </mxCell>
        <mxCell id="kaKPPBhv6QyS-EkI_fyc-111" value="" style="strokeWidth=2;html=1;shape=mxgraph.flowchart.terminator;whiteSpace=wrap;strokeColor=#FF3333;" parent="1" vertex="1">
          <mxGeometry x="1079" y="589" width="70" height="30" as="geometry" />
        </mxCell>
        <mxCell id="kaKPPBhv6QyS-EkI_fyc-112" value="&lt;font style=&quot;font-size: 13px;&quot;&gt;XDS Data&lt;/font&gt;" style="strokeWidth=2;html=1;shape=mxgraph.flowchart.terminator;whiteSpace=wrap;fillStyle=auto;strokeColor=#FF3333;" parent="1" vertex="1">
          <mxGeometry x="1030" y="735" width="80" height="40" as="geometry" />
        </mxCell>
        <mxCell id="kaKPPBhv6QyS-EkI_fyc-113" value="&lt;font style=&quot;font-size: 13px;&quot;&gt;Constraints&lt;/font&gt;" style="strokeWidth=2;html=1;shape=mxgraph.flowchart.terminator;whiteSpace=wrap;strokeColor=#FF3333;" parent="1" vertex="1">
          <mxGeometry x="1030" y="803.76" width="80" height="36.25" as="geometry" />
        </mxCell>
        <mxCell id="kaKPPBhv6QyS-EkI_fyc-118" value="" style="endArrow=none;dashed=1;html=1;rounded=0;strokeWidth=2;" parent="1" edge="1">
          <mxGeometry width="50" height="50" relative="1" as="geometry">
            <mxPoint x="1110" y="720" as="sourcePoint" />
            <mxPoint x="1120" y="720" as="targetPoint" />
            <Array as="points">
              <mxPoint x="1130" y="720" />
              <mxPoint x="1130" y="860" />
              <mxPoint x="890" y="860" />
              <mxPoint x="890" y="720" />
              <mxPoint x="970" y="720" />
              <mxPoint x="1040" y="720" />
              <mxPoint x="1120" y="720" />
            </Array>
          </mxGeometry>
        </mxCell>
        <mxCell id="kaKPPBhv6QyS-EkI_fyc-119" value="&lt;font style=&quot;font-size: 13px;&quot;&gt;Secure Data Storage Key&lt;/font&gt;" style="strokeWidth=2;html=1;shape=mxgraph.flowchart.terminator;whiteSpace=wrap;strokeColor=#FF3333;fontColor=#FF3333;fillStyle=auto;" parent="1" vertex="1">
          <mxGeometry x="880" y="670" width="150" height="30" as="geometry" />
        </mxCell>
        <mxCell id="kaKPPBhv6QyS-EkI_fyc-120" value="" style="rounded=0;whiteSpace=wrap;html=1;strokeWidth=2;" parent="1" vertex="1">
          <mxGeometry x="915" y="595" width="100" height="50" as="geometry" />
        </mxCell>
        <mxCell id="kaKPPBhv6QyS-EkI_fyc-121" value="FHIR Data&amp;nbsp; Services&lt;br&gt;&lt;font style=&quot;font-size: 8px;&quot;&gt;e.g. Medication Service&lt;/font&gt;" style="rounded=0;whiteSpace=wrap;html=1;strokeWidth=2;" parent="1" vertex="1">
          <mxGeometry x="910" y="600" width="100" height="50" as="geometry" />
        </mxCell>
        <mxCell id="kaKPPBhv6QyS-EkI_fyc-126" value="" style="endArrow=none;startArrow=classic;html=1;rounded=0;entryX=0.495;entryY=-0.031;entryDx=0;entryDy=0;entryPerimeter=0;endFill=0;edgeStyle=orthogonalEdgeStyle;curved=1;" parent="1" target="kaKPPBhv6QyS-EkI_fyc-96" edge="1">
          <mxGeometry width="50" height="50" relative="1" as="geometry">
            <mxPoint x="1080" y="400" as="sourcePoint" />
            <mxPoint x="1270" y="491.25" as="targetPoint" />
            <Array as="points">
              <mxPoint x="1080" y="424" />
            </Array>
          </mxGeometry>
        </mxCell>
        <mxCell id="kaKPPBhv6QyS-EkI_fyc-127" value="" style="endArrow=none;html=1;rounded=0;entryX=0.75;entryY=1;entryDx=0;entryDy=0;exitX=0.143;exitY=0.019;exitDx=0;exitDy=0;exitPerimeter=0;" parent="1" source="kaKPPBhv6QyS-EkI_fyc-98" target="kaKPPBhv6QyS-EkI_fyc-58" edge="1">
          <mxGeometry width="50" height="50" relative="1" as="geometry">
            <mxPoint x="982" y="490" as="sourcePoint" />
            <mxPoint x="1000" y="120" as="targetPoint" />
          </mxGeometry>
        </mxCell>
        <mxCell id="kaKPPBhv6QyS-EkI_fyc-130" value="&lt;font style=&quot;font-size: 13px;&quot;&gt;Consent Management&lt;/font&gt;" style="rounded=0;whiteSpace=wrap;html=1;strokeWidth=2;" parent="1" vertex="1">
          <mxGeometry x="1020" y="360" width="110" height="40" as="geometry" />
        </mxCell>
        <mxCell id="kaKPPBhv6QyS-EkI_fyc-138" style="edgeStyle=orthogonalEdgeStyle;rounded=0;orthogonalLoop=1;jettySize=auto;html=1;exitX=0.5;exitY=1;exitDx=0;exitDy=0;exitPerimeter=0;" parent="1" source="kaKPPBhv6QyS-EkI_fyc-102" target="kaKPPBhv6QyS-EkI_fyc-102" edge="1">
          <mxGeometry relative="1" as="geometry" />
        </mxCell>
        <mxCell id="kaKPPBhv6QyS-EkI_fyc-139" value="" style="endArrow=none;startArrow=classic;html=1;rounded=0;endFill=0;edgeStyle=orthogonalEdgeStyle;curved=1;entryX=0.42;entryY=1.014;entryDx=0;entryDy=0;entryPerimeter=0;" parent="1" target="kaKPPBhv6QyS-EkI_fyc-97" edge="1">
          <mxGeometry width="50" height="50" relative="1" as="geometry">
            <mxPoint x="820" y="530" as="sourcePoint" />
            <mxPoint x="858" y="435" as="targetPoint" />
            <Array as="points">
              <mxPoint x="820" y="530" />
              <mxPoint x="820" y="511" />
            </Array>
          </mxGeometry>
        </mxCell>
        <mxCell id="kaKPPBhv6QyS-EkI_fyc-142" value="" style="endArrow=none;startArrow=classic;html=1;rounded=0;exitX=0;exitY=0.5;exitDx=0;exitDy=0;exitPerimeter=0;entryX=1.001;entryY=0.684;entryDx=0;entryDy=0;endFill=0;edgeStyle=orthogonalEdgeStyle;curved=1;entryPerimeter=0;" parent="1" edge="1">
          <mxGeometry width="50" height="50" relative="1" as="geometry">
            <mxPoint x="1030" y="751" as="sourcePoint" />
            <mxPoint x="1000.0999999999999" y="760.2" as="targetPoint" />
            <Array as="points">
              <mxPoint x="1000" y="751" />
            </Array>
          </mxGeometry>
        </mxCell>
        <mxCell id="kaKPPBhv6QyS-EkI_fyc-150" value="&lt;font style=&quot;font-size: 14px;&quot;&gt;Abkürzungen:&lt;br&gt;&lt;/font&gt;&lt;ul style=&quot;font-size: 14px;&quot;&gt;&lt;li style=&quot;&quot;&gt;&lt;font style=&quot;font-size: 14px;&quot;&gt;TI - Telematikinfrastruktur&lt;/font&gt;&lt;/li&gt;&lt;li style=&quot;&quot;&gt;&lt;font style=&quot;font-size: 14px;&quot;&gt;IDP - Identitiy Provider&lt;/font&gt;&lt;/li&gt;&lt;li style=&quot;&quot;&gt;&lt;font style=&quot;font-size: 14px;&quot;&gt;SigD - Content Signaturdienst für Versicherte&lt;/font&gt;&lt;/li&gt;&lt;li style=&quot;&quot;&gt;&lt;font style=&quot;font-size: 14px;&quot;&gt;FdV - Frontend des Versicherten&lt;/font&gt;&lt;/li&gt;&lt;li style=&quot;&quot;&gt;&lt;font style=&quot;font-size: 14px;&quot;&gt;eGK - Elektronische Gesundheitskarte&lt;/font&gt;&lt;/li&gt;&lt;li style=&quot;&quot;&gt;&lt;font style=&quot;font-size: 14px;&quot;&gt;VZD - Verzeichnisdienst&lt;/font&gt;&lt;/li&gt;&lt;li style=&quot;&quot;&gt;&lt;font style=&quot;font-size: 14px;&quot;&gt;eH-KT - eHealth-Kartenterminal&lt;/font&gt;&lt;/li&gt;&lt;li style=&quot;&quot;&gt;&lt;font style=&quot;font-size: 14px;&quot;&gt;SM-B - Institutionskarte&lt;/font&gt;&lt;/li&gt;&lt;li style=&quot;&quot;&gt;&lt;font style=&quot;font-size: 14px;&quot;&gt;PS - Primärsystem&lt;/font&gt;&lt;/li&gt;&lt;li style=&quot;&quot;&gt;&lt;font style=&quot;font-size: 14px;&quot;&gt;WANDA - Weitere Anwendungen ...&lt;/font&gt;&lt;/li&gt;&lt;li style=&quot;&quot;&gt;&lt;font style=&quot;font-size: 14px;&quot;&gt;LEI - Leistungserbringerinstitution&amp;nbsp;&lt;/font&gt;&lt;/li&gt;&lt;li style=&quot;&quot;&gt;&lt;font style=&quot;font-size: 14px;&quot;&gt;DiGA - Digitale Gesundheitsanwendung&lt;/font&gt;&lt;/li&gt;&lt;li&gt;NCPeH -&amp;nbsp;National Contact Point for eHealth&lt;/li&gt;&lt;li&gt;ÖGD - Öffentlicher Gesundheitsdienst&lt;/li&gt;&lt;/ul&gt;" style="rounded=0;whiteSpace=wrap;html=1;align=left;strokeWidth=1;" parent="1" vertex="1">
          <mxGeometry x="1530" y="740" width="330" height="280" as="geometry" />
        </mxCell>
        <mxCell id="kaKPPBhv6QyS-EkI_fyc-151" value="eGK" style="strokeWidth=2;html=1;shape=mxgraph.flowchart.terminator;whiteSpace=wrap;" parent="1" vertex="1">
          <mxGeometry x="1550" y="40" width="100" height="60" as="geometry" />
        </mxCell>
        <mxCell id="kaKPPBhv6QyS-EkI_fyc-168" style="edgeStyle=orthogonalEdgeStyle;rounded=0;orthogonalLoop=1;jettySize=auto;html=1;exitX=0;exitY=0.5;exitDx=0;exitDy=0;entryX=1;entryY=0.5;entryDx=0;entryDy=0;" parent="1" source="kaKPPBhv6QyS-EkI_fyc-153" target="kaKPPBhv6QyS-EkI_fyc-154" edge="1">
          <mxGeometry relative="1" as="geometry" />
        </mxCell>
        <mxCell id="kaKPPBhv6QyS-EkI_fyc-153" value="" style="rounded=0;whiteSpace=wrap;html=1;" parent="1" vertex="1">
          <mxGeometry x="1746.25" y="137.5" width="35" height="55" as="geometry" />
        </mxCell>
        <mxCell id="kaKPPBhv6QyS-EkI_fyc-154" value="eH-KT" style="rounded=0;whiteSpace=wrap;html=1;" parent="1" vertex="1">
          <mxGeometry x="1540" y="135" width="120" height="60" as="geometry" />
        </mxCell>
        <mxCell id="kaKPPBhv6QyS-EkI_fyc-155" value="" style="rounded=0;whiteSpace=wrap;html=1;" parent="1" vertex="1">
          <mxGeometry x="1530" y="240" width="140" height="300" as="geometry" />
        </mxCell>
        <mxCell id="kaKPPBhv6QyS-EkI_fyc-157" value="SM-B" style="strokeWidth=2;html=1;shape=mxgraph.flowchart.terminator;whiteSpace=wrap;" parent="1" vertex="1">
          <mxGeometry x="1550" y="580" width="100" height="60" as="geometry" />
        </mxCell>
        <mxCell id="kaKPPBhv6QyS-EkI_fyc-158" value="Versicherter" style="shape=umlActor;verticalLabelPosition=bottom;verticalAlign=top;html=1;outlineConnect=0;" parent="1" vertex="1">
          <mxGeometry x="1751.88" y="145" width="23.75" height="45" as="geometry" />
        </mxCell>
        <mxCell id="kaKPPBhv6QyS-EkI_fyc-163" value="VSDM" style="rounded=0;whiteSpace=wrap;html=1;" parent="1" vertex="1">
          <mxGeometry x="1550" y="335" width="100" height="35" as="geometry" />
        </mxCell>
        <mxCell id="kaKPPBhv6QyS-EkI_fyc-164" value="&lt;font style=&quot;font-size: 13px;&quot;&gt;Konnektor/ &lt;br&gt;Basis Consumer/&lt;br&gt;TI-Gateway&lt;/font&gt;" style="rounded=0;whiteSpace=wrap;html=1;strokeColor=#ffffff;" parent="1" vertex="1">
          <mxGeometry x="1550" y="250" width="100" height="60" as="geometry" />
        </mxCell>
        <mxCell id="kaKPPBhv6QyS-EkI_fyc-165" value="" style="rounded=0;whiteSpace=wrap;html=1;" parent="1" vertex="1">
          <mxGeometry x="1730" y="390" width="110" height="165" as="geometry" />
        </mxCell>
        <mxCell id="kaKPPBhv6QyS-EkI_fyc-166" value="Auth" style="rounded=0;whiteSpace=wrap;html=1;" parent="1" vertex="1">
          <mxGeometry x="1741.25" y="453.75" width="87.5" height="47.5" as="geometry" />
        </mxCell>
        <mxCell id="kaKPPBhv6QyS-EkI_fyc-167" value="" style="endArrow=none;startArrow=classic;html=1;rounded=0;entryX=0.561;entryY=-0.001;entryDx=0;entryDy=0;endFill=0;edgeStyle=orthogonalEdgeStyle;curved=1;entryPerimeter=0;" parent="1" edge="1">
          <mxGeometry width="50" height="50" relative="1" as="geometry">
            <mxPoint x="1594" y="100" as="sourcePoint" />
            <mxPoint x="1599.32" y="134.94000000000005" as="targetPoint" />
            <Array as="points">
              <mxPoint x="1594" y="135" />
            </Array>
          </mxGeometry>
        </mxCell>
        <mxCell id="kaKPPBhv6QyS-EkI_fyc-170" value="" style="endArrow=none;html=1;rounded=0;entryX=0.5;entryY=1;entryDx=0;entryDy=0;exitX=0.5;exitY=0;exitDx=0;exitDy=0;" parent="1" source="kaKPPBhv6QyS-EkI_fyc-155" target="kaKPPBhv6QyS-EkI_fyc-154" edge="1">
          <mxGeometry width="50" height="50" relative="1" as="geometry">
            <mxPoint x="1300" y="230" as="sourcePoint" />
            <mxPoint x="1350" y="180" as="targetPoint" />
          </mxGeometry>
        </mxCell>
        <mxCell id="kaKPPBhv6QyS-EkI_fyc-171" value="" style="endArrow=none;startArrow=classic;html=1;rounded=0;exitX=0.5;exitY=1;exitDx=0;exitDy=0;endFill=0;edgeStyle=orthogonalEdgeStyle;curved=1;" parent="1" edge="1">
          <mxGeometry width="50" height="50" relative="1" as="geometry">
            <mxPoint x="1591.0000000000002" y="539.9999999999998" as="sourcePoint" />
            <mxPoint x="1590" y="580" as="targetPoint" />
            <Array as="points">
              <mxPoint x="1591" y="580" />
              <mxPoint x="1598" y="580" />
            </Array>
          </mxGeometry>
        </mxCell>
        <mxCell id="kaKPPBhv6QyS-EkI_fyc-172" value="" style="endArrow=none;html=1;rounded=1;exitX=1;exitY=0.5;exitDx=0;exitDy=0;entryX=0;entryY=0.5;entryDx=0;entryDy=0;curved=0;" parent="1" source="kaKPPBhv6QyS-EkI_fyc-159" target="kaKPPBhv6QyS-EkI_fyc-166" edge="1">
          <mxGeometry width="50" height="50" relative="1" as="geometry">
            <mxPoint x="1440" y="620" as="sourcePoint" />
            <mxPoint x="1490" y="570" as="targetPoint" />
            <Array as="points">
              <mxPoint x="1480" y="548" />
              <mxPoint x="1480" y="478" />
            </Array>
          </mxGeometry>
        </mxCell>
        <mxCell id="kaKPPBhv6QyS-EkI_fyc-176" value="" style="edgeStyle=orthogonalEdgeStyle;rounded=0;orthogonalLoop=1;jettySize=auto;html=1;" parent="1" source="kaKPPBhv6QyS-EkI_fyc-173" target="kaKPPBhv6QyS-EkI_fyc-165" edge="1">
          <mxGeometry relative="1" as="geometry" />
        </mxCell>
        <mxCell id="kaKPPBhv6QyS-EkI_fyc-173" value="" style="rounded=0;whiteSpace=wrap;html=1;" parent="1" vertex="1">
          <mxGeometry x="1766.09" y="610" width="37.82" height="50" as="geometry" />
        </mxCell>
        <mxCell id="kaKPPBhv6QyS-EkI_fyc-174" value="&amp;nbsp;Leistungsbringer/&lt;br&gt;Kostenträger/&lt;br&gt;ÖGD/&lt;br&gt;Ombudsstelle/&lt;br&gt;DiGA" style="shape=umlActor;verticalLabelPosition=bottom;verticalAlign=top;html=1;outlineConnect=0;" parent="1" vertex="1">
          <mxGeometry x="1775.32" y="615" width="19.37" height="40" as="geometry" />
        </mxCell>
        <mxCell id="kaKPPBhv6QyS-EkI_fyc-177" value="" style="endArrow=none;html=1;rounded=1;entryX=0.5;entryY=0;entryDx=0;entryDy=0;curved=0;" parent="1" target="kaKPPBhv6QyS-EkI_fyc-165" edge="1">
          <mxGeometry width="50" height="50" relative="1" as="geometry">
            <mxPoint x="1650" y="350" as="sourcePoint" />
            <mxPoint x="1700" y="310" as="targetPoint" />
            <Array as="points">
              <mxPoint x="1785" y="350" />
            </Array>
          </mxGeometry>
        </mxCell>
        <mxCell id="kaKPPBhv6QyS-EkI_fyc-182" value="" style="endArrow=none;html=1;rounded=0;exitX=0.5;exitY=0;exitDx=0;exitDy=0;entryX=0.5;entryY=1;entryDx=0;entryDy=0;" parent="1" source="kaKPPBhv6QyS-EkI_fyc-130" target="kaKPPBhv6QyS-EkI_fyc-86" edge="1">
          <mxGeometry width="50" height="50" relative="1" as="geometry">
            <mxPoint x="1215" y="350" as="sourcePoint" />
            <mxPoint x="1265" y="300" as="targetPoint" />
          </mxGeometry>
        </mxCell>
        <mxCell id="kaKPPBhv6QyS-EkI_fyc-183" value="" style="endArrow=none;html=1;rounded=1;exitX=1;exitY=0.5;exitDx=0;exitDy=0;entryX=0;entryY=0.132;entryDx=0;entryDy=0;entryPerimeter=0;curved=0;" parent="1" source="kaKPPBhv6QyS-EkI_fyc-86" target="kaKPPBhv6QyS-EkI_fyc-165" edge="1">
          <mxGeometry width="50" height="50" relative="1" as="geometry">
            <mxPoint x="1230" y="340" as="sourcePoint" />
            <mxPoint x="1280" y="290" as="targetPoint" />
            <Array as="points">
              <mxPoint x="1390" y="305" />
              <mxPoint x="1390" y="410" />
            </Array>
          </mxGeometry>
        </mxCell>
        <mxCell id="kaKPPBhv6QyS-EkI_fyc-186" value="" style="endArrow=none;dashed=1;html=1;rounded=0;entryX=0;entryY=0.5;entryDx=0;entryDy=0;curved=1;exitX=0;exitY=0.5;exitDx=0;exitDy=0;strokeColor=#009900;strokeWidth=2;" parent="1" edge="1">
          <mxGeometry width="50" height="50" relative="1" as="geometry">
            <mxPoint x="1580.0000000000168" y="15" as="sourcePoint" />
            <mxPoint x="1580.0000000000168" y="15" as="targetPoint" />
            <Array as="points">
              <mxPoint x="1720" y="10" />
              <mxPoint x="1810" y="60" />
              <mxPoint x="1860" y="120" />
              <mxPoint x="1870" y="210" />
              <mxPoint x="1840" y="280" />
              <mxPoint x="1770" y="350" />
              <mxPoint x="1690" y="380" />
              <mxPoint x="1600" y="390" />
              <mxPoint x="1520" y="370" />
              <mxPoint x="1450" y="330" />
              <mxPoint x="1400" y="250" />
              <mxPoint x="1390" y="170" />
              <mxPoint x="1420" y="90" />
              <mxPoint x="1510" y="30" />
            </Array>
          </mxGeometry>
        </mxCell>
        <mxCell id="kaKPPBhv6QyS-EkI_fyc-188" value="&lt;font color=&quot;#009900&quot; style=&quot;font-size: 15px;&quot;&gt;&lt;b&gt;Nur in LEI&lt;br&gt;mit Konnektor/&lt;br&gt;TI-Gateway&lt;/b&gt;&lt;/font&gt;" style="rounded=0;whiteSpace=wrap;html=1;strokeColor=none;" parent="1" vertex="1">
          <mxGeometry x="1661.25" y="50" width="120" height="60" as="geometry" />
        </mxCell>
        <mxCell id="kaKPPBhv6QyS-EkI_fyc-194" value="&lt;i&gt;&lt;font style=&quot;font-size: 50px;&quot; color=&quot;#b3b3b3&quot;&gt;Internet&lt;/font&gt;&lt;/i&gt;" style="rounded=0;whiteSpace=wrap;html=1;strokeColor=#FFFFFF;rotation=-90;" parent="1" vertex="1">
          <mxGeometry x="510" y="460" width="240" height="120" as="geometry" />
        </mxCell>
        <mxCell id="kaKPPBhv6QyS-EkI_fyc-84" value="" style="endArrow=none;html=1;rounded=0;entryX=0.5;entryY=1;entryDx=0;entryDy=0;" parent="1" target="kaKPPBhv6QyS-EkI_fyc-74" edge="1">
          <mxGeometry width="50" height="50" relative="1" as="geometry">
            <mxPoint x="760" y="450" as="sourcePoint" />
            <mxPoint x="725" y="452.57" as="targetPoint" />
            <Array as="points" />
          </mxGeometry>
        </mxCell>
        <mxCell id="kaKPPBhv6QyS-EkI_fyc-81" value="" style="endArrow=none;html=1;rounded=1;exitX=1;exitY=0.5;exitDx=0;exitDy=0;entryX=0;entryY=0.5;entryDx=0;entryDy=0;curved=0;" parent="1" source="kaKPPBhv6QyS-EkI_fyc-21" target="kaKPPBhv6QyS-EkI_fyc-79" edge="1">
          <mxGeometry width="50" height="50" relative="1" as="geometry">
            <mxPoint x="490" y="510" as="sourcePoint" />
            <mxPoint x="540" y="460" as="targetPoint" />
            <Array as="points">
              <mxPoint x="610" y="505" />
              <mxPoint x="610" y="968" />
            </Array>
          </mxGeometry>
        </mxCell>
        <mxCell id="kaKPPBhv6QyS-EkI_fyc-69" value="" style="edgeStyle=orthogonalEdgeStyle;rounded=1;orthogonalLoop=1;jettySize=auto;html=1;entryX=0;entryY=0.5;entryDx=0;entryDy=0;curved=0;endArrow=none;endFill=0;" parent="1" source="kaKPPBhv6QyS-EkI_fyc-18" target="kaKPPBhv6QyS-EkI_fyc-61" edge="1">
          <mxGeometry relative="1" as="geometry">
            <mxPoint x="561.25" y="430" as="targetPoint" />
            <Array as="points">
              <mxPoint x="590" y="410" />
              <mxPoint x="590" y="205" />
            </Array>
          </mxGeometry>
        </mxCell>
        <mxCell id="kaKPPBhv6QyS-EkI_fyc-82" value="" style="endArrow=none;html=1;rounded=1;exitX=1;exitY=0.75;exitDx=0;exitDy=0;entryX=0;entryY=0.5;entryDx=0;entryDy=0;curved=0;" parent="1" source="kaKPPBhv6QyS-EkI_fyc-4" target="kaKPPBhv6QyS-EkI_fyc-80" edge="1">
          <mxGeometry width="50" height="50" relative="1" as="geometry">
            <mxPoint x="530" y="585" as="sourcePoint" />
            <mxPoint x="580" y="535" as="targetPoint" />
            <Array as="points">
              <mxPoint x="590" y="550" />
              <mxPoint x="590" y="1048" />
            </Array>
          </mxGeometry>
        </mxCell>
        <mxCell id="kaKPPBhv6QyS-EkI_fyc-196" value="" style="endArrow=none;html=1;rounded=0;exitX=1;exitY=0.5;exitDx=0;exitDy=0;entryX=0.779;entryY=1.019;entryDx=0;entryDy=0;entryPerimeter=0;" parent="1" target="kaKPPBhv6QyS-EkI_fyc-194" edge="1">
          <mxGeometry width="50" height="50" relative="1" as="geometry">
            <mxPoint x="485" y="452.57" as="sourcePoint" />
            <mxPoint x="725" y="450" as="targetPoint" />
            <Array as="points" />
          </mxGeometry>
        </mxCell>
        <mxCell id="kaKPPBhv6QyS-EkI_fyc-195" value="&lt;font style=&quot;font-size: 50px;&quot; color=&quot;#b3b3b3&quot;&gt;&lt;i&gt;Zentrales&lt;br&gt;Netz der TI&lt;/i&gt;&lt;/font&gt;" style="rounded=0;whiteSpace=wrap;html=1;strokeColor=#FFFFFF;rotation=-90;" parent="1" vertex="1">
          <mxGeometry x="1083" y="429" width="290" height="130" as="geometry" />
        </mxCell>
        <mxCell id="kaKPPBhv6QyS-EkI_fyc-179" value="" style="endArrow=none;html=1;rounded=0;entryX=0;entryY=0.364;entryDx=0;entryDy=0;entryPerimeter=0;exitX=1.005;exitY=0.195;exitDx=0;exitDy=0;exitPerimeter=0;" parent="1" source="kaKPPBhv6QyS-EkI_fyc-88" target="kaKPPBhv6QyS-EkI_fyc-165" edge="1">
          <mxGeometry width="50" height="50" relative="1" as="geometry">
            <mxPoint x="1160" y="431" as="sourcePoint" />
            <mxPoint x="1730" y="400" as="targetPoint" />
          </mxGeometry>
        </mxCell>
        <mxCell id="kaKPPBhv6QyS-EkI_fyc-193" value="" style="endArrow=none;html=1;rounded=0;exitX=0;exitY=0.5;exitDx=0;exitDy=0;" parent="1" source="kaKPPBhv6QyS-EkI_fyc-159" edge="1">
          <mxGeometry width="50" height="50" relative="1" as="geometry">
            <mxPoint x="1100" y="570" as="sourcePoint" />
            <mxPoint x="1070" y="547" as="targetPoint" />
          </mxGeometry>
        </mxCell>
        <mxCell id="kaKPPBhv6QyS-EkI_fyc-159" value="IDP Dienst" style="rounded=0;whiteSpace=wrap;html=1;" parent="1" vertex="1">
          <mxGeometry x="1300" y="515" width="120" height="65" as="geometry" />
        </mxCell>
        <mxCell id="kaKPPBhv6QyS-EkI_fyc-197" value="&lt;b style=&quot;font-size: 18px;&quot;&gt;VAU&lt;/b&gt;" style="rounded=0;whiteSpace=wrap;html=1;strokeColor=#FFFFFF;" parent="1" vertex="1">
          <mxGeometry x="907.5" y="350" width="75" height="40" as="geometry" />
        </mxCell>
        <mxCell id="kaKPPBhv6QyS-EkI_fyc-199" value="&lt;font size=&quot;1&quot; style=&quot;&quot;&gt;&lt;b style=&quot;&quot;&gt;&lt;i style=&quot;font-size: 16px;&quot;&gt;Aktensystem&lt;/i&gt;&lt;/b&gt;&lt;/font&gt;" style="rounded=0;whiteSpace=wrap;html=1;strokeColor=#FFFFFF;" parent="1" vertex="1">
          <mxGeometry x="1060" y="235" width="120" height="60" as="geometry" />
        </mxCell>
        <mxCell id="kaKPPBhv6QyS-EkI_fyc-86" value="Information&lt;br&gt;Service" style="rounded=0;whiteSpace=wrap;html=1;strokeWidth=2;" parent="1" vertex="1">
          <mxGeometry x="1020.0000000000001" y="285" width="110" height="40" as="geometry" />
        </mxCell>
        <mxCell id="kaKPPBhv6QyS-EkI_fyc-73" value="" style="endArrow=none;dashed=1;html=1;rounded=0;strokeWidth=2;" parent="1" edge="1">
          <mxGeometry width="50" height="50" relative="1" as="geometry">
            <mxPoint x="670" y="920" as="sourcePoint" />
            <mxPoint x="670" y="920" as="targetPoint" />
            <Array as="points">
              <mxPoint x="670" y="840" />
              <mxPoint x="670" y="250" />
              <mxPoint x="920" y="250" />
              <mxPoint x="1180" y="250" />
              <mxPoint x="1180" y="860" />
              <mxPoint x="1180" y="920" />
              <mxPoint x="930" y="920" />
            </Array>
          </mxGeometry>
        </mxCell>
        <mxCell id="kaKPPBhv6QyS-EkI_fyc-200" value="&lt;font style=&quot;font-size: 13px;&quot;&gt;ePA-FdV&lt;/font&gt;" style="rounded=0;whiteSpace=wrap;html=1;align=right;strokeColor=#FFFFFF;verticalAlign=top;" parent="1" vertex="1">
          <mxGeometry x="440" y="195" width="70" height="25" as="geometry" />
        </mxCell>
        <mxCell id="kaKPPBhv6QyS-EkI_fyc-7" value="Auth" style="rounded=0;whiteSpace=wrap;html=1;" parent="1" vertex="1">
          <mxGeometry x="411.57" y="240" width="76.87" height="30" as="geometry" />
        </mxCell>
        <mxCell id="kaKPPBhv6QyS-EkI_fyc-65" value="" style="edgeStyle=orthogonalEdgeStyle;rounded=1;orthogonalLoop=1;jettySize=auto;html=1;entryX=0;entryY=0.5;entryDx=0;entryDy=0;curved=0;endArrow=none;endFill=0;" parent="1" source="kaKPPBhv6QyS-EkI_fyc-7" target="kaKPPBhv6QyS-EkI_fyc-58" edge="1">
          <mxGeometry relative="1" as="geometry">
            <mxPoint x="450" y="175" as="targetPoint" />
            <Array as="points">
              <mxPoint x="450" y="85" />
            </Array>
          </mxGeometry>
        </mxCell>
        <mxCell id="kaKPPBhv6QyS-EkI_fyc-224" value="" style="shape=table;startSize=0;container=1;collapsible=0;childLayout=tableLayout;" parent="1" vertex="1">
          <mxGeometry x="1480" y="1053" width="230" height="100" as="geometry" />
        </mxCell>
        <mxCell id="kaKPPBhv6QyS-EkI_fyc-225" value="" style="shape=tableRow;horizontal=0;startSize=0;swimlaneHead=0;swimlaneBody=0;strokeColor=inherit;top=0;left=0;bottom=0;right=0;collapsible=0;dropTarget=0;fillColor=none;points=[[0,0.5],[1,0.5]];portConstraint=eastwest;" parent="kaKPPBhv6QyS-EkI_fyc-224" vertex="1">
          <mxGeometry width="230" height="29" as="geometry" />
        </mxCell>
        <mxCell id="kaKPPBhv6QyS-EkI_fyc-226" value="project" style="shape=partialRectangle;html=1;whiteSpace=wrap;connectable=0;strokeColor=inherit;overflow=hidden;fillColor=none;top=0;left=0;bottom=0;right=0;pointerEvents=1;" parent="kaKPPBhv6QyS-EkI_fyc-225" vertex="1">
          <mxGeometry width="60" height="29" as="geometry">
            <mxRectangle width="60" height="29" as="alternateBounds" />
          </mxGeometry>
        </mxCell>
        <mxCell id="kaKPPBhv6QyS-EkI_fyc-227" value="Elektronische Patientenakte" style="shape=partialRectangle;html=1;whiteSpace=wrap;connectable=0;strokeColor=inherit;overflow=hidden;fillColor=none;top=0;left=0;bottom=0;right=0;pointerEvents=1;" parent="kaKPPBhv6QyS-EkI_fyc-225" vertex="1">
          <mxGeometry x="60" width="170" height="29" as="geometry">
            <mxRectangle width="170" height="29" as="alternateBounds" />
          </mxGeometry>
        </mxCell>
        <mxCell id="kaKPPBhv6QyS-EkI_fyc-228" value="" style="shape=tableRow;horizontal=0;startSize=0;swimlaneHead=0;swimlaneBody=0;strokeColor=inherit;top=0;left=0;bottom=0;right=0;collapsible=0;dropTarget=0;fillColor=none;points=[[0,0.5],[1,0.5]];portConstraint=eastwest;" parent="kaKPPBhv6QyS-EkI_fyc-224" vertex="1">
          <mxGeometry y="29" width="230" height="71" as="geometry" />
        </mxCell>
        <mxCell id="kaKPPBhv6QyS-EkI_fyc-229" value="description" style="shape=partialRectangle;html=1;whiteSpace=wrap;connectable=0;strokeColor=inherit;overflow=hidden;fillColor=none;top=0;left=0;bottom=0;right=0;pointerEvents=1;" parent="kaKPPBhv6QyS-EkI_fyc-228" vertex="1">
          <mxGeometry width="60" height="71" as="geometry">
            <mxRectangle width="60" height="71" as="alternateBounds" />
          </mxGeometry>
        </mxCell>
        <mxCell id="kaKPPBhv6QyS-EkI_fyc-230" value="&lt;b&gt;Grobkonzept&lt;/b&gt;" style="shape=partialRectangle;html=1;whiteSpace=wrap;connectable=0;strokeColor=inherit;overflow=hidden;fillColor=none;top=0;left=0;bottom=0;right=0;pointerEvents=1;" parent="kaKPPBhv6QyS-EkI_fyc-228" vertex="1">
          <mxGeometry x="60" width="170" height="71" as="geometry">
            <mxRectangle width="170" height="71" as="alternateBounds" />
          </mxGeometry>
        </mxCell>
        <mxCell id="kaKPPBhv6QyS-EkI_fyc-231" value="" style="shape=table;startSize=0;container=1;collapsible=0;childLayout=tableLayout;" parent="1" vertex="1">
          <mxGeometry x="1230" y="1053" width="250" height="60" as="geometry" />
        </mxCell>
        <mxCell id="kaKPPBhv6QyS-EkI_fyc-232" value="" style="shape=tableRow;horizontal=0;startSize=0;swimlaneHead=0;swimlaneBody=0;strokeColor=inherit;top=0;left=0;bottom=0;right=0;collapsible=0;dropTarget=0;fillColor=none;points=[[0,0.5],[1,0.5]];portConstraint=eastwest;" parent="kaKPPBhv6QyS-EkI_fyc-231" vertex="1">
          <mxGeometry width="250" height="20" as="geometry" />
        </mxCell>
        <mxCell id="kaKPPBhv6QyS-EkI_fyc-233" value="" style="shape=partialRectangle;html=1;whiteSpace=wrap;connectable=0;strokeColor=inherit;overflow=hidden;fillColor=none;top=0;left=0;bottom=0;right=0;pointerEvents=1;" parent="kaKPPBhv6QyS-EkI_fyc-232" vertex="1">
          <mxGeometry width="60" height="20" as="geometry">
            <mxRectangle width="60" height="20" as="alternateBounds" />
          </mxGeometry>
        </mxCell>
        <mxCell id="kaKPPBhv6QyS-EkI_fyc-234" value="" style="shape=partialRectangle;html=1;whiteSpace=wrap;connectable=0;strokeColor=inherit;overflow=hidden;fillColor=none;top=0;left=0;bottom=0;right=0;pointerEvents=1;" parent="kaKPPBhv6QyS-EkI_fyc-232" vertex="1">
          <mxGeometry x="60" width="106" height="20" as="geometry">
            <mxRectangle width="106" height="20" as="alternateBounds" />
          </mxGeometry>
        </mxCell>
        <mxCell id="kaKPPBhv6QyS-EkI_fyc-235" value="" style="shape=partialRectangle;html=1;whiteSpace=wrap;connectable=0;strokeColor=inherit;overflow=hidden;fillColor=none;top=0;left=0;bottom=0;right=0;pointerEvents=1;" parent="kaKPPBhv6QyS-EkI_fyc-232" vertex="1">
          <mxGeometry x="166" width="84" height="20" as="geometry">
            <mxRectangle width="84" height="20" as="alternateBounds" />
          </mxGeometry>
        </mxCell>
        <mxCell id="kaKPPBhv6QyS-EkI_fyc-236" value="" style="shape=tableRow;horizontal=0;startSize=0;swimlaneHead=0;swimlaneBody=0;strokeColor=inherit;top=0;left=0;bottom=0;right=0;collapsible=0;dropTarget=0;fillColor=none;points=[[0,0.5],[1,0.5]];portConstraint=eastwest;" parent="kaKPPBhv6QyS-EkI_fyc-231" vertex="1">
          <mxGeometry y="20" width="250" height="20" as="geometry" />
        </mxCell>
        <mxCell id="kaKPPBhv6QyS-EkI_fyc-237" value="name" style="shape=partialRectangle;html=1;whiteSpace=wrap;connectable=0;strokeColor=inherit;overflow=hidden;fillColor=none;top=0;left=0;bottom=0;right=0;pointerEvents=1;" parent="kaKPPBhv6QyS-EkI_fyc-236" vertex="1">
          <mxGeometry width="60" height="20" as="geometry">
            <mxRectangle width="60" height="20" as="alternateBounds" />
          </mxGeometry>
        </mxCell>
        <mxCell id="kaKPPBhv6QyS-EkI_fyc-238" value="GK ePA" style="shape=partialRectangle;html=1;whiteSpace=wrap;connectable=0;strokeColor=inherit;overflow=hidden;fillColor=none;top=0;left=0;bottom=0;right=0;pointerEvents=1;" parent="kaKPPBhv6QyS-EkI_fyc-236" vertex="1">
          <mxGeometry x="60" width="106" height="20" as="geometry">
            <mxRectangle width="106" height="20" as="alternateBounds" />
          </mxGeometry>
        </mxCell>
        <mxCell id="kaKPPBhv6QyS-EkI_fyc-239" value="" style="shape=partialRectangle;html=1;whiteSpace=wrap;connectable=0;strokeColor=inherit;overflow=hidden;fillColor=none;top=0;left=0;bottom=0;right=0;pointerEvents=1;" parent="kaKPPBhv6QyS-EkI_fyc-236" vertex="1">
          <mxGeometry x="166" width="84" height="20" as="geometry">
            <mxRectangle width="84" height="20" as="alternateBounds" />
          </mxGeometry>
        </mxCell>
        <mxCell id="kaKPPBhv6QyS-EkI_fyc-240" value="" style="shape=tableRow;horizontal=0;startSize=0;swimlaneHead=0;swimlaneBody=0;strokeColor=inherit;top=0;left=0;bottom=0;right=0;collapsible=0;dropTarget=0;fillColor=none;points=[[0,0.5],[1,0.5]];portConstraint=eastwest;" parent="kaKPPBhv6QyS-EkI_fyc-231" vertex="1">
          <mxGeometry y="40" width="250" height="20" as="geometry" />
        </mxCell>
        <mxCell id="kaKPPBhv6QyS-EkI_fyc-241" value="status" style="shape=partialRectangle;html=1;whiteSpace=wrap;connectable=0;strokeColor=inherit;overflow=hidden;fillColor=none;top=0;left=0;bottom=0;right=0;pointerEvents=1;" parent="kaKPPBhv6QyS-EkI_fyc-240" vertex="1">
          <mxGeometry width="60" height="20" as="geometry">
            <mxRectangle width="60" height="20" as="alternateBounds" />
          </mxGeometry>
        </mxCell>
        <mxCell id="kaKPPBhv6QyS-EkI_fyc-242" value="öffentlich" style="shape=partialRectangle;html=1;whiteSpace=wrap;connectable=0;strokeColor=inherit;overflow=hidden;fillColor=none;top=0;left=0;bottom=0;right=0;pointerEvents=1;" parent="kaKPPBhv6QyS-EkI_fyc-240" vertex="1">
          <mxGeometry x="60" width="106" height="20" as="geometry">
            <mxRectangle width="106" height="20" as="alternateBounds" />
          </mxGeometry>
        </mxCell>
        <mxCell id="kaKPPBhv6QyS-EkI_fyc-243" value="" style="shape=partialRectangle;html=1;whiteSpace=wrap;connectable=0;strokeColor=inherit;overflow=hidden;fillColor=none;top=0;left=0;bottom=0;right=0;pointerEvents=1;" parent="kaKPPBhv6QyS-EkI_fyc-240" vertex="1">
          <mxGeometry x="166" width="84" height="20" as="geometry">
            <mxRectangle width="84" height="20" as="alternateBounds" />
          </mxGeometry>
        </mxCell>
        <mxCell id="kaKPPBhv6QyS-EkI_fyc-244" value="" style="shape=table;startSize=0;container=1;collapsible=0;childLayout=tableLayout;" parent="1" vertex="1">
          <mxGeometry x="1230" y="1111" width="250" height="20" as="geometry" />
        </mxCell>
        <mxCell id="kaKPPBhv6QyS-EkI_fyc-245" value="" style="shape=tableRow;horizontal=0;startSize=0;swimlaneHead=0;swimlaneBody=0;strokeColor=inherit;top=0;left=0;bottom=0;right=0;collapsible=0;dropTarget=0;fillColor=none;points=[[0,0.5],[1,0.5]];portConstraint=eastwest;" parent="kaKPPBhv6QyS-EkI_fyc-244" vertex="1">
          <mxGeometry width="250" height="20" as="geometry" />
        </mxCell>
        <mxCell id="kaKPPBhv6QyS-EkI_fyc-246" value="release" style="shape=partialRectangle;html=1;whiteSpace=wrap;connectable=0;strokeColor=inherit;overflow=hidden;fillColor=none;top=0;left=0;bottom=0;right=0;pointerEvents=1;" parent="kaKPPBhv6QyS-EkI_fyc-245" vertex="1">
          <mxGeometry width="60" height="20" as="geometry">
            <mxRectangle width="60" height="20" as="alternateBounds" />
          </mxGeometry>
        </mxCell>
        <mxCell id="kaKPPBhv6QyS-EkI_fyc-247" value="R3.1" style="shape=partialRectangle;html=1;whiteSpace=wrap;connectable=0;strokeColor=inherit;overflow=hidden;fillColor=none;top=0;left=0;bottom=0;right=0;pointerEvents=1;" parent="kaKPPBhv6QyS-EkI_fyc-245" vertex="1">
          <mxGeometry x="60" width="190" height="20" as="geometry">
            <mxRectangle width="190" height="20" as="alternateBounds" />
          </mxGeometry>
        </mxCell>
        <mxCell id="kaKPPBhv6QyS-EkI_fyc-248" value="" style="shape=table;startSize=0;container=1;collapsible=0;childLayout=tableLayout;" parent="1" vertex="1">
          <mxGeometry x="1710" y="1053" width="150" height="100" as="geometry" />
        </mxCell>
        <mxCell id="kaKPPBhv6QyS-EkI_fyc-249" value="" style="shape=tableRow;horizontal=0;startSize=0;swimlaneHead=0;swimlaneBody=0;strokeColor=inherit;top=0;left=0;bottom=0;right=0;collapsible=0;dropTarget=0;fillColor=none;points=[[0,0.5],[1,0.5]];portConstraint=eastwest;" parent="kaKPPBhv6QyS-EkI_fyc-248" vertex="1">
          <mxGeometry width="150" height="100" as="geometry" />
        </mxCell>
        <mxCell id="kaKPPBhv6QyS-EkI_fyc-250" value="" style="shape=partialRectangle;html=1;whiteSpace=wrap;connectable=0;strokeColor=inherit;overflow=hidden;fillColor=none;top=0;left=0;bottom=0;right=0;pointerEvents=1;" parent="kaKPPBhv6QyS-EkI_fyc-249" vertex="1">
          <mxGeometry width="150" height="100" as="geometry">
            <mxRectangle width="150" height="100" as="alternateBounds" />
          </mxGeometry>
        </mxCell>
        <mxCell id="kaKPPBhv6QyS-EkI_fyc-251" value="" style="shape=table;startSize=0;container=1;collapsible=0;childLayout=tableLayout;" parent="1" vertex="1">
          <mxGeometry x="1230" y="1132" width="250" height="20" as="geometry" />
        </mxCell>
        <mxCell id="kaKPPBhv6QyS-EkI_fyc-252" value="" style="shape=tableRow;horizontal=0;startSize=0;swimlaneHead=0;swimlaneBody=0;strokeColor=inherit;top=0;left=0;bottom=0;right=0;collapsible=0;dropTarget=0;fillColor=none;points=[[0,0.5],[1,0.5]];portConstraint=eastwest;" parent="kaKPPBhv6QyS-EkI_fyc-251" vertex="1">
          <mxGeometry width="250" height="20" as="geometry" />
        </mxCell>
        <mxCell id="kaKPPBhv6QyS-EkI_fyc-253" value="© Copyright gematik&amp;nbsp;" style="shape=partialRectangle;html=1;whiteSpace=wrap;connectable=0;strokeColor=inherit;overflow=hidden;fillColor=none;top=0;left=0;bottom=0;right=0;pointerEvents=1;" parent="kaKPPBhv6QyS-EkI_fyc-252" vertex="1">
          <mxGeometry width="250" height="20" as="geometry">
            <mxRectangle width="250" height="20" as="alternateBounds" />
          </mxGeometry>
        </mxCell>
        <mxCell id="A6N6ZQYmdVAi9p8Yq2ER-1" value="" style="shape=image;verticalLabelPosition=bottom;labelBackgroundColor=default;verticalAlign=top;aspect=fixed;imageAspect=0;image=data:image/svg+xml,PHN2ZyB4bWxuczp4bGluaz0iaHR0cDovL3d3dy53My5vcmcvMTk5OS94bGluayIgeG1sbnM9Imh0dHA6Ly93d3cudzMub3JnLzIwMDAvc3ZnIiB4bWw6c3BhY2U9InByZXNlcnZlIiB2aWV3Qm94PSIwIDAgNDAwLjMzIDc0LjIyIiB5PSIwcHgiIHg9IjBweCIgaWQ9IkViZW5lXzEiIHZlcnNpb249IjEuMiI+JiN4YTs8cmVjdCBoZWlnaHQ9IjcwLjMiIHdpZHRoPSIzOTYuMjgiIGZpbGw9Im5vbmUiIHk9IjEuOTYiIHg9IjIuMzMiLz4mI3hhOzxnPiYjeGE7CTxnPiYjeGE7CQk8cGF0aCBkPSJNODAuMDYsMjUuOUgzNi45NWMtMi4wOSwwLTMuNzgtMS42OS0zLjc4LTMuNzhzMS42OS0zLjc4LDMuNzgtMy43OGg0My4xMWMyLjA5LDAsMy43OCwxLjY5LDMuNzgsMy43OCYjMTA7JiM5OyYjOTsmIzk7UzgyLjE1LDI1LjksODAuMDYsMjUuOXoiLz4mI3hhOwk8L2c+JiN4YTsJPGc+JiN4YTsJCTxwYXRoIGQ9Ik04MC4wNiw0MS41MkgyMS44NGMtMi4wOSwwLTMuNzgtMS42OS0zLjc4LTMuNzhjMC0yLjA5LDEuNjktMy43OCwzLjc4LTMuNzhoNTguMjImIzEwOyYjOTsmIzk7JiM5O2MyLjA5LDAsMy43OCwxLjY5LDMuNzgsMy43OEM4My44NCwzOS44Myw4Mi4xNSw0MS41Miw4MC4wNiw0MS41MnoiIGZpbGw9IiNFMTAwMDAiLz4mI3hhOwk8L2c+JiN4YTsJPGc+JiN4YTsJCTxwYXRoIGQ9Ik04MC4wNiw1Ny4xNEg2LjcyYy0yLjA5LDAtMy43OC0xLjY5LTMuNzgtMy43OGMwLTIuMDksMS42OS0zLjc4LDMuNzgtMy43OGg3My4zNCYjMTA7JiM5OyYjOTsmIzk7YzIuMDksMCwzLjc4LDEuNjksMy43OCwzLjc4QzgzLjg0LDU1LjQ1LDgyLjE1LDU3LjE0LDgwLjA2LDU3LjE0eiIgZmlsbD0iI0ZGQ0MwMCIvPiYjeGE7CTwvZz4mI3hhOwk8Zz4mI3hhOwkJPHBhdGggZD0iTTM3MS40NSwzMy45MmgtMC4zVjMuMzZoLTcuOTZ2NTMuMWg3Ljk2VjQxLjEzaDAuMjNsMTUuODUsMTUuMzJIMzk4bC0xOS44LTE5LjI3bDE5LjY1LTE3LjE0aC0xMC43JiMxMDsmIzk7JiM5OyYjOTtMMzcxLjQ1LDMzLjkyeiBNMzQyLjc4LDU2LjQ1aDcuOTZWMjAuMDRoLTcuOTZWNTYuNDV6IE0zNDYuNzIsMi42Yy0zLjE5LDAtNS41NCwyLjUtNS41NCw1LjYxYzAsMy4xOSwyLjM1LDUuNTQsNS41NCw1LjU0JiMxMDsmIzk7JiM5OyYjOTtjMy4xOSwwLDUuNjEtMi4zNSw1LjYxLTUuNTRDMzUyLjMzLDUuMSwzNDkuOTEsMi42LDM0Ni43MiwyLjYgTTMxOS4xOSwyNy4yNWgxMy45NnYtNy4yMWgtMTMuOTZWOS4xMmgtNy45NnYzMy45MSYjMTA7JiM5OyYjOTsmIzk7YzAsOS43MSw0Ljg1LDE0LjE4LDEzLjA1LDE0LjE4YzQuNjMsMCw4LjI3LTEuNjcsMTEuMTUtMy42NGwtMy4xMS02LjM3Yy0yLjIsMS4zNy00Ljg1LDIuNS03LjM2LDIuNWMtMy4xOSwwLTUuNzYtMS45Ny01Ljc2LTYuODMmIzEwOyYjOTsmIzk7JiM5O1YyNy4yNXogTTI4NC41Miw1MC45OWMtNS45OSwwLTcuOTYtMi40My03Ljk2LTQuNzhjMC0yLjM1LDEuNjctNC41NSw3LjEzLTUuMDhsMTAuMDEtMC45OXY5LjU2JiMxMDsmIzk7JiM5OyYjOTtDMjkxLjUsNTAuNDYsMjg4LjA5LDUwLjk5LDI4NC41Miw1MC45OSBNMjg1LjI4LDE5LjI4Yy00LjkzLDAtMTAuMzIsMS4wNi0xNS40LDQuMjVsMi45Niw2LjQ1YzMuMjYtMS45LDcuODktMy42NCwxMi4xNC0zLjY0JiMxMDsmIzk7JiM5OyYjOTtjNS41NCwwLDguNzIsMi4xMiw4LjcyLDYuOTh2MC42MWwtOS4wMywwLjkxYy0xMC4wMSwwLjk5LTE2LjA4LDQuNTUtMTYuMDgsMTEuM2MwLDYuNjgsNC42MywxMS4wNywxNi4zMSwxMS4wNyYjMTA7JiM5OyYjOTsmIzk7YzUuOTIsMCwxMi43NC0xLjQ0LDE2Ljc2LTMuNTdWMzIuODZDMzAxLjY2LDIzLjkxLDI5NS42NywxOS4zNiwyODUuMjgsMTkuMjggTTI0NS4zOCwxOS4yOGMtNC41NSwwLTkuNDEsMS4zNy0xMy4wNSwzLjY0JiMxMDsmIzk7JiM5OyYjOTtjLTIuODgtMi40My02Ljk4LTMuNjQtMTEuOTEtMy42NGMtNi4wNywwLTEyLjU5LDIuNDMtMTYuMDEsNS45OXYzMS4xOGg3Ljk2bC0wLjA4LTI3YzIuODgtMi4yOCw1LjkyLTIuNzMsOC44Ny0yLjczJiMxMDsmIzk7JiM5OyYjOTtjNS4wMSwwLDcuOTYsMi45Niw3Ljk2LDguMTJ2MjEuNjJoNy45NlYzNC44M2MwLTEuOTctMC4yMy0zLjcyLTAuNjgtNS4zMWMyLjI4LTEuNjcsNS40Ni0yLjgxLDguNzItMi44MSYjMTA7JiM5OyYjOTsmIzk7YzQuNzgsMCw3Ljk2LDIuNSw3Ljk2LDguMTJ2MjEuNjJoNy45NlYzNC44M0MyNjEuMDgsMjQuNTIsMjU1LjA5LDE5LjI4LDI0NS4zOCwxOS4yOCBNMTY5LjIzLDM0LjYxJiMxMDsmIzk7JiM5OyYjOTtjMC45OS01LjA4LDQuNjMtOC40MiwxMC4wOS04LjQyYzUuMDgsMCw4LjM0LDIuOTYsOS4yNSw4LjQySDE2OS4yM3ogTTE5Ni42OCwzNy42NGMwLTExLjE1LTcuMDUtMTguMzYtMTcuMjItMTguMzYmIzEwOyYjOTsmIzk7JiM5O2MtMTAuNywwLTE4LjU4LDcuNTEtMTguNTgsMTguNjZjMCwxMi4wNiw4LjE5LDE5LjI3LDE5LjEyLDE5LjI3YzUuNDYsMCwxMC40Ny0xLjM3LDE0Ljk0LTUuMDhsLTMuOTQtNi4zJiMxMDsmIzk7JiM5OyYjOTtjLTMuMDMsMy4xMS02LjksNC41NS0xMC41NCw0LjU1Yy01LjMxLDAtMTAuNzctMi42NS0xMS40NS05Ljc5aDI3LjU0QzE5Ni42MSwzOS42OSwxOTYuNjgsMzguNjMsMTk2LjY4LDM3LjY0IE0xNTEuNjMsMjUuMjgmIzEwOyYjOTsmIzk7JiM5O2MtNC43LTQuNzgtMTEuNjgtNS45OS0xNi4yMy01Ljk5Yy0xMy4xMiwwLTIwLjg2LDcuNTktMjAuODYsMTkuMDRjMCwxMC45Miw3LjM2LDE4LjEzLDE3LjksMTguMTNjMy4wMywwLDQuNy0xLjQ0LDQuNy0zLjg3JiMxMDsmIzk7JiM5OyYjOTtjMC0yLjI4LTEuNjctMy41Ny00LjctMy41N2MtNS44NCwwLTkuOTQtNC4xNy05Ljk0LTEwLjdjMC03LjA1LDQuNDgtMTEuNjEsMTIuNDQtMTEuNjFjMi41OCwwLDYuMywwLjY4LDguNDIsMi43M0wxNDMuMjgsNTYmIzEwOyYjOTsmIzk7JiM5O2MwLDUuNjEtNS4wOCw4LjE5LTExLjM4LDguMTljLTUuNzYsMC05LjU2LTIuNTgtMTAuMzItMi45NmMtMy4xMS0xLjUyLTYuMTQtMC4wOC02LjE0LDIuODhjMCw1LjAxLDkuMSw3LjUxLDE2LjU0LDcuNTEmIzEwOyYjOTsmIzk7JiM5O2MxMS4wNywwLDE5LjY1LTQuODUsMTkuNjUtMTUuNjNWMjUuMjh6IiBmaWxsPSIjMDAwRTUyIi8+JiN4YTsJPC9nPiYjeGE7PC9nPiYjeGE7PC9zdmc+;" parent="1" vertex="1">
          <mxGeometry x="1720" y="1063.97" width="130" height="24.05" as="geometry" />
        </mxCell>
        <mxCell id="A6N6ZQYmdVAi9p8Yq2ER-2" value="" style="edgeStyle=orthogonalEdgeStyle;rounded=1;orthogonalLoop=1;jettySize=auto;html=1;curved=0;entryX=-0.002;entryY=0.513;entryDx=0;entryDy=0;entryPerimeter=0;" parent="1" source="kaKPPBhv6QyS-EkI_fyc-27" target="kaKPPBhv6QyS-EkI_fyc-4" edge="1">
          <mxGeometry relative="1" as="geometry">
            <mxPoint x="380" y="440" as="targetPoint" />
            <Array as="points">
              <mxPoint x="380" y="436" />
            </Array>
            <mxPoint x="30" y="480" as="sourcePoint" />
          </mxGeometry>
        </mxCell>
        <mxCell id="A6N6ZQYmdVAi9p8Yq2ER-3" value="&lt;span style=&quot;font-size: 13px;&quot;&gt;PS/&lt;br&gt;Clientsystem&lt;/span&gt;" style="rounded=0;whiteSpace=wrap;html=1;strokeColor=#ffffff;" parent="1" vertex="1">
          <mxGeometry x="1735.01" y="392.75" width="100" height="60" as="geometry" />
        </mxCell>
        <mxCell id="rMvSQb0ZAU8z5xszER22-2" value="" style="endArrow=classic;html=1;rounded=0;" parent="1" edge="1">
          <mxGeometry width="50" height="50" relative="1" as="geometry">
            <mxPoint x="330" y="261.5" as="sourcePoint" />
            <mxPoint x="330" y="256.5" as="targetPoint" />
          </mxGeometry>
        </mxCell>
        <mxCell id="rMvSQb0ZAU8z5xszER22-3" value="R" style="text;html=1;align=center;verticalAlign=middle;whiteSpace=wrap;rounded=0;" parent="1" vertex="1">
          <mxGeometry x="325" y="269" width="10" height="10" as="geometry" />
        </mxCell>
        <mxCell id="rMvSQb0ZAU8z5xszER22-4" value="" style="ellipse;whiteSpace=wrap;html=1;aspect=fixed;" parent="1" vertex="1">
          <mxGeometry x="545" y="225" width="10" height="10" as="geometry" />
        </mxCell>
        <mxCell id="rMvSQb0ZAU8z5xszER22-5" value="" style="endArrow=classic;html=1;rounded=0;" parent="1" edge="1">
          <mxGeometry width="50" height="50" relative="1" as="geometry">
            <mxPoint x="535" y="226.5" as="sourcePoint" />
            <mxPoint x="535" y="221.5" as="targetPoint" />
          </mxGeometry>
        </mxCell>
        <mxCell id="rMvSQb0ZAU8z5xszER22-6" value="R" style="text;html=1;align=center;verticalAlign=middle;whiteSpace=wrap;rounded=0;" parent="1" vertex="1">
          <mxGeometry x="530" y="234" width="10" height="10" as="geometry" />
        </mxCell>
        <mxCell id="rMvSQb0ZAU8z5xszER22-7" value="" style="ellipse;whiteSpace=wrap;html=1;aspect=fixed;" parent="1" vertex="1">
          <mxGeometry x="585" y="292" width="10" height="10" as="geometry" />
        </mxCell>
        <mxCell id="rMvSQb0ZAU8z5xszER22-8" value="" style="endArrow=classic;html=1;rounded=0;" parent="1" edge="1">
          <mxGeometry width="50" height="50" relative="1" as="geometry">
            <mxPoint x="575" y="293.5" as="sourcePoint" />
            <mxPoint x="575" y="288.5" as="targetPoint" />
          </mxGeometry>
        </mxCell>
        <mxCell id="rMvSQb0ZAU8z5xszER22-9" value="R" style="text;html=1;align=center;verticalAlign=middle;whiteSpace=wrap;rounded=0;" parent="1" vertex="1">
          <mxGeometry x="570" y="301" width="10" height="10" as="geometry" />
        </mxCell>
        <mxCell id="rMvSQb0ZAU8z5xszER22-16" value="" style="ellipse;whiteSpace=wrap;html=1;aspect=fixed;" parent="1" vertex="1">
          <mxGeometry x="979" y="335" width="10" height="10" as="geometry" />
        </mxCell>
        <mxCell id="rMvSQb0ZAU8z5xszER22-17" value="" style="endArrow=classic;html=1;rounded=0;" parent="1" edge="1">
          <mxGeometry width="50" height="50" relative="1" as="geometry">
            <mxPoint x="969" y="338.5" as="sourcePoint" />
            <mxPoint x="969" y="333.5" as="targetPoint" />
          </mxGeometry>
        </mxCell>
        <mxCell id="rMvSQb0ZAU8z5xszER22-18" value="R" style="text;html=1;align=center;verticalAlign=middle;whiteSpace=wrap;rounded=0;" parent="1" vertex="1">
          <mxGeometry x="964" y="344" width="10" height="10" as="geometry" />
        </mxCell>
        <mxCell id="rMvSQb0ZAU8z5xszER22-19" value="" style="ellipse;whiteSpace=wrap;html=1;aspect=fixed;" parent="1" vertex="1">
          <mxGeometry x="1071" y="335" width="10" height="10" as="geometry" />
        </mxCell>
        <mxCell id="rMvSQb0ZAU8z5xszER22-20" value="" style="endArrow=classic;html=1;rounded=0;" parent="1" edge="1">
          <mxGeometry width="50" height="50" relative="1" as="geometry">
            <mxPoint x="1061" y="336.5" as="sourcePoint" />
            <mxPoint x="1061" y="331.5" as="targetPoint" />
          </mxGeometry>
        </mxCell>
        <mxCell id="rMvSQb0ZAU8z5xszER22-21" value="R" style="text;html=1;align=center;verticalAlign=middle;whiteSpace=wrap;rounded=0;" parent="1" vertex="1">
          <mxGeometry x="1056" y="344" width="10" height="10" as="geometry" />
        </mxCell>
        <mxCell id="rMvSQb0ZAU8z5xszER22-22" value="" style="ellipse;whiteSpace=wrap;html=1;aspect=fixed;" parent="1" vertex="1">
          <mxGeometry x="1385" y="355" width="10" height="10" as="geometry" />
        </mxCell>
        <mxCell id="rMvSQb0ZAU8z5xszER22-23" value="" style="endArrow=classic;html=1;rounded=0;" parent="1" edge="1">
          <mxGeometry width="50" height="50" relative="1" as="geometry">
            <mxPoint x="1375" y="356.5" as="sourcePoint" />
            <mxPoint x="1375" y="351.5" as="targetPoint" />
          </mxGeometry>
        </mxCell>
        <mxCell id="rMvSQb0ZAU8z5xszER22-24" value="R" style="text;html=1;align=center;verticalAlign=middle;whiteSpace=wrap;rounded=0;" parent="1" vertex="1">
          <mxGeometry x="1370" y="364" width="10" height="10" as="geometry" />
        </mxCell>
        <mxCell id="rMvSQb0ZAU8z5xszER22-25" value="" style="ellipse;whiteSpace=wrap;html=1;aspect=fixed;" parent="1" vertex="1">
          <mxGeometry x="1596" y="214" width="10" height="10" as="geometry" />
        </mxCell>
        <mxCell id="rMvSQb0ZAU8z5xszER22-26" value="" style="endArrow=classic;html=1;rounded=0;" parent="1" edge="1">
          <mxGeometry width="50" height="50" relative="1" as="geometry">
            <mxPoint x="1586" y="215.5" as="sourcePoint" />
            <mxPoint x="1586" y="210.5" as="targetPoint" />
          </mxGeometry>
        </mxCell>
        <mxCell id="rMvSQb0ZAU8z5xszER22-27" value="R" style="text;html=1;align=center;verticalAlign=middle;whiteSpace=wrap;rounded=0;" parent="1" vertex="1">
          <mxGeometry x="1581" y="223" width="10" height="10" as="geometry" />
        </mxCell>
        <mxCell id="rMvSQb0ZAU8z5xszER22-28" value="" style="ellipse;whiteSpace=wrap;html=1;aspect=fixed;" parent="1" vertex="1">
          <mxGeometry x="1779" y="364" width="10" height="10" as="geometry" />
        </mxCell>
        <mxCell id="rMvSQb0ZAU8z5xszER22-29" value="" style="endArrow=classic;html=1;rounded=0;" parent="1" edge="1">
          <mxGeometry width="50" height="50" relative="1" as="geometry">
            <mxPoint x="1769" y="365.5" as="sourcePoint" />
            <mxPoint x="1769" y="360.5" as="targetPoint" />
          </mxGeometry>
        </mxCell>
        <mxCell id="rMvSQb0ZAU8z5xszER22-30" value="R" style="text;html=1;align=center;verticalAlign=middle;whiteSpace=wrap;rounded=0;" parent="1" vertex="1">
          <mxGeometry x="1764" y="373" width="10" height="10" as="geometry" />
        </mxCell>
        <mxCell id="rMvSQb0ZAU8z5xszER22-31" value="" style="endArrow=classic;html=1;rounded=0;" parent="1" edge="1">
          <mxGeometry width="50" height="50" relative="1" as="geometry">
            <mxPoint x="321.54742547425417" y="594.5000000000005" as="sourcePoint" />
            <mxPoint x="321.54742547425417" y="599.5000000000005" as="targetPoint" />
          </mxGeometry>
        </mxCell>
        <mxCell id="rMvSQb0ZAU8z5xszER22-32" value="R" style="text;html=1;align=center;verticalAlign=middle;whiteSpace=wrap;rounded=0;" parent="1" vertex="1">
          <mxGeometry x="318" y="579" width="6" height="10" as="geometry" />
        </mxCell>
        <mxCell id="rMvSQb0ZAU8z5xszER22-36" value="" style="endArrow=classic;html=1;rounded=0;" parent="1" edge="1">
          <mxGeometry width="50" height="50" relative="1" as="geometry">
            <mxPoint x="321.54742547425417" y="669.5000000000005" as="sourcePoint" />
            <mxPoint x="321.54742547425417" y="674.5000000000005" as="targetPoint" />
          </mxGeometry>
        </mxCell>
        <mxCell id="rMvSQb0ZAU8z5xszER22-37" value="R" style="text;html=1;align=center;verticalAlign=middle;whiteSpace=wrap;rounded=0;" parent="1" vertex="1">
          <mxGeometry x="319" y="654" width="6" height="10" as="geometry" />
        </mxCell>
        <mxCell id="rMvSQb0ZAU8z5xszER22-39" value="" style="ellipse;whiteSpace=wrap;html=1;aspect=fixed;" parent="1" vertex="1">
          <mxGeometry x="585" y="735" width="10" height="10" as="geometry" />
        </mxCell>
        <mxCell id="rMvSQb0ZAU8z5xszER22-40" value="" style="endArrow=classic;html=1;rounded=0;" parent="1" edge="1">
          <mxGeometry width="50" height="50" relative="1" as="geometry">
            <mxPoint x="576.5474254742542" y="744.5000000000005" as="sourcePoint" />
            <mxPoint x="576.5474254742542" y="749.5000000000005" as="targetPoint" />
          </mxGeometry>
        </mxCell>
        <mxCell id="rMvSQb0ZAU8z5xszER22-41" value="R" style="text;html=1;align=center;verticalAlign=middle;whiteSpace=wrap;rounded=0;" parent="1" vertex="1">
          <mxGeometry x="573" y="729" width="6" height="10" as="geometry" />
        </mxCell>
        <mxCell id="rMvSQb0ZAU8z5xszER22-42" value="" style="ellipse;whiteSpace=wrap;html=1;aspect=fixed;" parent="1" vertex="1">
          <mxGeometry x="606" y="701" width="10" height="10" as="geometry" />
        </mxCell>
        <mxCell id="rMvSQb0ZAU8z5xszER22-43" value="" style="endArrow=classic;html=1;rounded=0;" parent="1" edge="1">
          <mxGeometry width="50" height="50" relative="1" as="geometry">
            <mxPoint x="597.5474254742542" y="710.5000000000005" as="sourcePoint" />
            <mxPoint x="597.5474254742542" y="715.5000000000005" as="targetPoint" />
          </mxGeometry>
        </mxCell>
        <mxCell id="rMvSQb0ZAU8z5xszER22-44" value="R" style="text;html=1;align=center;verticalAlign=middle;whiteSpace=wrap;rounded=0;" parent="1" vertex="1">
          <mxGeometry x="594" y="695" width="6" height="10" as="geometry" />
        </mxCell>
        <mxCell id="rMvSQb0ZAU8z5xszER22-45" value="" style="ellipse;whiteSpace=wrap;html=1;aspect=fixed;" parent="1" vertex="1">
          <mxGeometry x="1475" y="509" width="10" height="10" as="geometry" />
        </mxCell>
        <mxCell id="rMvSQb0ZAU8z5xszER22-46" value="" style="endArrow=classic;html=1;rounded=0;" parent="1" edge="1">
          <mxGeometry width="50" height="50" relative="1" as="geometry">
            <mxPoint x="1466.5474254742542" y="518.5000000000005" as="sourcePoint" />
            <mxPoint x="1466.5474254742542" y="523.5000000000005" as="targetPoint" />
          </mxGeometry>
        </mxCell>
        <mxCell id="rMvSQb0ZAU8z5xszER22-47" value="R" style="text;html=1;align=center;verticalAlign=middle;whiteSpace=wrap;rounded=0;" parent="1" vertex="1">
          <mxGeometry x="1463" y="503" width="6" height="10" as="geometry" />
        </mxCell>
        <mxCell id="rMvSQb0ZAU8z5xszER22-48" value="" style="ellipse;whiteSpace=wrap;html=1;aspect=fixed;" parent="1" vertex="1">
          <mxGeometry x="1431" y="445" width="10" height="10" as="geometry" />
        </mxCell>
        <mxCell id="rMvSQb0ZAU8z5xszER22-49" value="" style="endArrow=classic;html=1;rounded=0;" parent="1" edge="1">
          <mxGeometry width="50" height="50" relative="1" as="geometry">
            <mxPoint x="1423.8922530604611" y="438.5" as="sourcePoint" />
            <mxPoint x="1421" y="438.5" as="targetPoint" />
          </mxGeometry>
        </mxCell>
        <mxCell id="rMvSQb0ZAU8z5xszER22-50" value="R" style="text;html=1;align=center;verticalAlign=middle;whiteSpace=wrap;rounded=0;" parent="1" vertex="1">
          <mxGeometry x="1433" y="434" width="6" height="10" as="geometry" />
        </mxCell>
        <mxCell id="rMvSQb0ZAU8z5xszER22-51" value="" style="ellipse;whiteSpace=wrap;html=1;aspect=fixed;" parent="1" vertex="1">
          <mxGeometry x="737" y="445" width="10" height="10" as="geometry" />
        </mxCell>
        <mxCell id="rMvSQb0ZAU8z5xszER22-52" value="" style="endArrow=classic;html=1;rounded=0;" parent="1" edge="1">
          <mxGeometry width="50" height="50" relative="1" as="geometry">
            <mxPoint x="753" y="438.75" as="sourcePoint" />
            <mxPoint x="755.8922530604611" y="438.75" as="targetPoint" />
          </mxGeometry>
        </mxCell>
        <mxCell id="rMvSQb0ZAU8z5xszER22-53" value="R" style="text;html=1;align=center;verticalAlign=middle;whiteSpace=wrap;rounded=0;" parent="1" vertex="1">
          <mxGeometry x="737" y="434" width="6" height="10" as="geometry" />
        </mxCell>
        <mxCell id="rMvSQb0ZAU8z5xszER22-54" value="" style="ellipse;whiteSpace=wrap;html=1;aspect=fixed;" parent="1" vertex="1">
          <mxGeometry x="922" y="279" width="10" height="10" as="geometry" />
        </mxCell>
        <mxCell id="rMvSQb0ZAU8z5xszER22-56" value="R" style="text;html=1;align=center;verticalAlign=middle;whiteSpace=wrap;rounded=0;" parent="1" vertex="1">
          <mxGeometry x="936" y="273" width="6" height="10" as="geometry" />
        </mxCell>
        <mxCell id="rMvSQb0ZAU8z5xszER22-57" value="" style="endArrow=classic;html=1;rounded=0;" parent="1" edge="1">
          <mxGeometry width="50" height="50" relative="1" as="geometry">
            <mxPoint x="939.2702702702702" y="287.50000000000045" as="sourcePoint" />
            <mxPoint x="939.2702702702702" y="292.50000000000045" as="targetPoint" />
          </mxGeometry>
        </mxCell>
        <mxCell id="rMvSQb0ZAU8z5xszER22-58" value="" style="ellipse;whiteSpace=wrap;html=1;aspect=fixed;" parent="1" vertex="1">
          <mxGeometry x="637" y="79" width="10" height="10" as="geometry" />
        </mxCell>
        <mxCell id="rMvSQb0ZAU8z5xszER22-59" value="" style="endArrow=classic;html=1;rounded=0;" parent="1" edge="1">
          <mxGeometry width="50" height="50" relative="1" as="geometry">
            <mxPoint x="651" y="72.75" as="sourcePoint" />
            <mxPoint x="653.8922530604611" y="72.75" as="targetPoint" />
          </mxGeometry>
        </mxCell>
        <mxCell id="rMvSQb0ZAU8z5xszER22-60" value="R" style="text;html=1;align=center;verticalAlign=middle;whiteSpace=wrap;rounded=0;" parent="1" vertex="1">
          <mxGeometry x="635" y="68" width="6" height="10" as="geometry" />
        </mxCell>
        <mxCell id="rMvSQb0ZAU8z5xszER22-61" value="" style="ellipse;whiteSpace=wrap;html=1;aspect=fixed;" parent="1" vertex="1">
          <mxGeometry x="560" y="447" width="10" height="10" as="geometry" />
        </mxCell>
        <mxCell id="rMvSQb0ZAU8z5xszER22-62" value="" style="endArrow=classic;html=1;rounded=0;" parent="1" edge="1">
          <mxGeometry width="50" height="50" relative="1" as="geometry">
            <mxPoint x="574" y="440.75" as="sourcePoint" />
            <mxPoint x="576.8922530604611" y="440.75" as="targetPoint" />
          </mxGeometry>
        </mxCell>
        <mxCell id="rMvSQb0ZAU8z5xszER22-63" value="R" style="text;html=1;align=center;verticalAlign=middle;whiteSpace=wrap;rounded=0;" parent="1" vertex="1">
          <mxGeometry x="558" y="436" width="6" height="10" as="geometry" />
        </mxCell>
        <mxCell id="kaKPPBhv6QyS-EkI_fyc-26" value="" style="edgeStyle=orthogonalEdgeStyle;rounded=1;orthogonalLoop=1;jettySize=auto;html=1;entryX=0;entryY=0.5;entryDx=0;entryDy=0;curved=0;endArrow=none;endFill=0;" parent="1" target="kaKPPBhv6QyS-EkI_fyc-8" edge="1">
          <mxGeometry relative="1" as="geometry">
            <mxPoint x="345" y="270" as="sourcePoint" />
            <mxPoint x="370" y="220" as="targetPoint" />
            <Array as="points">
              <mxPoint x="345" y="305" />
            </Array>
          </mxGeometry>
        </mxCell>
        <mxCell id="dmmhSpbr1uV-d9rVKhpj-1" value="" style="ellipse;whiteSpace=wrap;html=1;aspect=fixed;" parent="1" vertex="1">
          <mxGeometry x="1155" y="542" width="10" height="10" as="geometry" />
        </mxCell>
        <mxCell id="dmmhSpbr1uV-d9rVKhpj-2" value="" style="endArrow=classic;html=1;rounded=0;" parent="1" edge="1">
          <mxGeometry width="50" height="50" relative="1" as="geometry">
            <mxPoint x="1171" y="535.75" as="sourcePoint" />
            <mxPoint x="1173.8922530604611" y="535.75" as="targetPoint" />
          </mxGeometry>
        </mxCell>
        <mxCell id="dmmhSpbr1uV-d9rVKhpj-3" value="R" style="text;html=1;align=center;verticalAlign=middle;whiteSpace=wrap;rounded=0;" parent="1" vertex="1">
          <mxGeometry x="1155" y="531" width="6" height="10" as="geometry" />
        </mxCell>
        <mxCell id="dmmhSpbr1uV-d9rVKhpj-7" value="" style="endArrow=none;startArrow=classic;html=1;rounded=0;endFill=0;edgeStyle=orthogonalEdgeStyle;curved=1;entryX=0.42;entryY=1.014;entryDx=0;entryDy=0;entryPerimeter=0;" parent="1" edge="1">
          <mxGeometry width="50" height="50" relative="1" as="geometry">
            <mxPoint x="831" y="510.00000000000045" as="sourcePoint" />
            <mxPoint x="829" y="529.0000000000005" as="targetPoint" />
            <Array as="points">
              <mxPoint x="831" y="510.00000000000045" />
              <mxPoint x="831" y="529.0000000000005" />
            </Array>
          </mxGeometry>
        </mxCell>
        <mxCell id="dmmhSpbr1uV-d9rVKhpj-8" value="" style="endArrow=none;startArrow=classic;html=1;rounded=0;endFill=0;edgeStyle=orthogonalEdgeStyle;curved=1;entryX=1.001;entryY=0.46;entryDx=0;entryDy=0;entryPerimeter=0;" parent="1" source="kaKPPBhv6QyS-EkI_fyc-100" target="kaKPPBhv6QyS-EkI_fyc-97" edge="1">
          <mxGeometry width="50" height="50" relative="1" as="geometry">
            <mxPoint x="898" y="490" as="sourcePoint" />
            <mxPoint x="880" y="483.72" as="targetPoint" />
            <Array as="points">
              <mxPoint x="880" y="490" />
            </Array>
          </mxGeometry>
        </mxCell>
        <mxCell id="dmmhSpbr1uV-d9rVKhpj-25" value="" style="endArrow=none;startArrow=classic;html=1;rounded=0;exitX=0;exitY=0.5;exitDx=0;exitDy=0;exitPerimeter=0;entryX=1.001;entryY=0.684;entryDx=0;entryDy=0;endFill=0;edgeStyle=orthogonalEdgeStyle;curved=1;entryPerimeter=0;" parent="1" edge="1">
          <mxGeometry width="50" height="50" relative="1" as="geometry">
            <mxPoint x="1035.1" y="605.1999999999998" as="sourcePoint" />
            <mxPoint x="1065" y="595.9999999999998" as="targetPoint" />
            <Array as="points">
              <mxPoint x="1080" y="605" />
              <mxPoint x="1080" y="596" />
            </Array>
          </mxGeometry>
        </mxCell>
        <mxCell id="dmmhSpbr1uV-d9rVKhpj-10" value="" style="endArrow=none;startArrow=classic;html=1;rounded=0;endFill=0;edgeStyle=orthogonalEdgeStyle;curved=1;entryX=1.001;entryY=0.46;entryDx=0;entryDy=0;entryPerimeter=0;" parent="1" edge="1">
          <mxGeometry width="50" height="50" relative="1" as="geometry">
            <mxPoint x="880" y="480.00000000000045" as="sourcePoint" />
            <mxPoint x="903" y="484.00000000000045" as="targetPoint" />
            <Array as="points">
              <mxPoint x="903" y="480.00000000000045" />
            </Array>
          </mxGeometry>
        </mxCell>
        <mxCell id="dmmhSpbr1uV-d9rVKhpj-11" value="" style="endArrow=none;startArrow=classic;html=1;rounded=0;endFill=0;edgeStyle=orthogonalEdgeStyle;curved=1;exitX=0.435;exitY=-0.006;exitDx=0;exitDy=0;exitPerimeter=0;entryX=0.488;entryY=1.013;entryDx=0;entryDy=0;entryPerimeter=0;" parent="1" edge="1">
          <mxGeometry width="50" height="50" relative="1" as="geometry">
            <mxPoint x="838.975" y="424.8799999999999" as="sourcePoint" />
            <mxPoint x="843.18" y="400.51999999999975" as="targetPoint" />
            <Array as="points">
              <mxPoint x="839" y="401" />
            </Array>
          </mxGeometry>
        </mxCell>
        <mxCell id="dmmhSpbr1uV-d9rVKhpj-13" value="" style="endArrow=none;startArrow=classic;html=1;rounded=0;endFill=0;edgeStyle=orthogonalEdgeStyle;curved=1;exitX=0.435;exitY=-0.006;exitDx=0;exitDy=0;exitPerimeter=0;entryX=0.488;entryY=1.013;entryDx=0;entryDy=0;entryPerimeter=0;" parent="1" edge="1">
          <mxGeometry width="50" height="50" relative="1" as="geometry">
            <mxPoint x="852.18" y="400.503105590062" as="sourcePoint" />
            <mxPoint x="847.975" y="424.8631055900621" as="targetPoint" />
            <Array as="points">
              <mxPoint x="852.155" y="424.38310559006186" />
            </Array>
          </mxGeometry>
        </mxCell>
        <mxCell id="dmmhSpbr1uV-d9rVKhpj-14" value="" style="endArrow=none;startArrow=classic;html=1;rounded=0;endFill=0;edgeStyle=orthogonalEdgeStyle;curved=1;exitX=0.435;exitY=-0.006;exitDx=0;exitDy=0;exitPerimeter=0;entryX=0.488;entryY=1.013;entryDx=0;entryDy=0;entryPerimeter=0;" parent="1" edge="1">
          <mxGeometry width="50" height="50" relative="1" as="geometry">
            <mxPoint x="819.975" y="648.8799999999999" as="sourcePoint" />
            <mxPoint x="824.18" y="624.5199999999998" as="targetPoint" />
            <Array as="points">
              <mxPoint x="820" y="625" />
            </Array>
          </mxGeometry>
        </mxCell>
        <mxCell id="dmmhSpbr1uV-d9rVKhpj-15" value="" style="endArrow=none;startArrow=classic;html=1;rounded=0;endFill=0;edgeStyle=orthogonalEdgeStyle;curved=1;exitX=0.435;exitY=-0.006;exitDx=0;exitDy=0;exitPerimeter=0;entryX=0.488;entryY=1.013;entryDx=0;entryDy=0;entryPerimeter=0;" parent="1" edge="1">
          <mxGeometry width="50" height="50" relative="1" as="geometry">
            <mxPoint x="833.18" y="624.503105590062" as="sourcePoint" />
            <mxPoint x="828.975" y="648.8631055900621" as="targetPoint" />
            <Array as="points">
              <mxPoint x="833.155" y="648.3831055900619" />
            </Array>
          </mxGeometry>
        </mxCell>
        <mxCell id="dmmhSpbr1uV-d9rVKhpj-17" value="" style="endArrow=none;startArrow=classic;html=1;rounded=0;endFill=0;edgeStyle=orthogonalEdgeStyle;curved=1;exitX=0.435;exitY=-0.006;exitDx=0;exitDy=0;exitPerimeter=0;entryX=0.421;entryY=0.999;entryDx=0;entryDy=0;entryPerimeter=0;" parent="1" target="kaKPPBhv6QyS-EkI_fyc-121" edge="1">
          <mxGeometry width="50" height="50" relative="1" as="geometry">
            <mxPoint x="949.975" y="669.8799999999999" as="sourcePoint" />
            <mxPoint x="954.18" y="645.5199999999998" as="targetPoint" />
            <Array as="points">
              <mxPoint x="950" y="650" />
              <mxPoint x="952" y="650" />
            </Array>
          </mxGeometry>
        </mxCell>
        <mxCell id="dmmhSpbr1uV-d9rVKhpj-18" value="" style="endArrow=none;startArrow=classic;html=1;rounded=0;endFill=0;edgeStyle=orthogonalEdgeStyle;curved=1;exitX=0.435;exitY=-0.006;exitDx=0;exitDy=0;exitPerimeter=0;entryX=0.421;entryY=0.999;entryDx=0;entryDy=0;entryPerimeter=0;" parent="1" edge="1">
          <mxGeometry width="50" height="50" relative="1" as="geometry">
            <mxPoint x="962.0049751243781" y="649.9999999999998" as="sourcePoint" />
            <mxPoint x="959.9799751243781" y="669.8799999999997" as="targetPoint" />
            <Array as="points">
              <mxPoint x="961.9799751243781" y="669.8799999999997" />
              <mxPoint x="959.9799751243781" y="669.8799999999997" />
            </Array>
          </mxGeometry>
        </mxCell>
        <mxCell id="dmmhSpbr1uV-d9rVKhpj-19" value="" style="endArrow=none;startArrow=classic;html=1;rounded=0;endFill=0;edgeStyle=orthogonalEdgeStyle;curved=1;exitX=0.419;exitY=-0.017;exitDx=0;exitDy=0;exitPerimeter=0;entryX=0.421;entryY=0.999;entryDx=0;entryDy=0;entryPerimeter=0;" parent="1" edge="1">
          <mxGeometry width="50" height="50" relative="1" as="geometry">
            <mxPoint x="945.8999999999999" y="729.0000000000001" as="sourcePoint" />
            <mxPoint x="954" y="700.85" as="targetPoint" />
            <Array as="points">
              <mxPoint x="946" y="720" />
              <mxPoint x="946" y="720" />
              <mxPoint x="946" y="701" />
            </Array>
          </mxGeometry>
        </mxCell>
        <mxCell id="dmmhSpbr1uV-d9rVKhpj-20" value="" style="endArrow=none;startArrow=classic;html=1;rounded=0;endFill=0;edgeStyle=orthogonalEdgeStyle;curved=1;exitX=0.419;exitY=-0.017;exitDx=0;exitDy=0;exitPerimeter=0;entryX=0.421;entryY=0.999;entryDx=0;entryDy=0;entryPerimeter=0;" parent="1" edge="1">
          <mxGeometry width="50" height="50" relative="1" as="geometry">
            <mxPoint x="958.9961038961044" y="700.8499999999998" as="sourcePoint" />
            <mxPoint x="950.8961038961043" y="728.9999999999999" as="targetPoint" />
            <Array as="points">
              <mxPoint x="958.8961038961043" y="709.8499999999999" />
              <mxPoint x="958.8961038961043" y="709.8499999999999" />
              <mxPoint x="958.8961038961043" y="728.8499999999999" />
            </Array>
          </mxGeometry>
        </mxCell>
        <mxCell id="dmmhSpbr1uV-d9rVKhpj-21" value="" style="endArrow=none;startArrow=classic;html=1;rounded=0;exitX=0;exitY=0.5;exitDx=0;exitDy=0;exitPerimeter=0;entryX=1.001;entryY=0.684;entryDx=0;entryDy=0;endFill=0;edgeStyle=orthogonalEdgeStyle;curved=1;entryPerimeter=0;" parent="1" edge="1">
          <mxGeometry width="50" height="50" relative="1" as="geometry">
            <mxPoint x="999.0999999999999" y="764.1999999999998" as="sourcePoint" />
            <mxPoint x="1029" y="754.9999999999998" as="targetPoint" />
            <Array as="points">
              <mxPoint x="1029.1" y="764.1999999999998" />
            </Array>
          </mxGeometry>
        </mxCell>
        <mxCell id="dmmhSpbr1uV-d9rVKhpj-22" value="" style="endArrow=none;startArrow=classic;html=1;rounded=0;exitX=0;exitY=0.5;exitDx=0;exitDy=0;exitPerimeter=0;entryX=1.001;entryY=0.684;entryDx=0;entryDy=0;endFill=0;edgeStyle=orthogonalEdgeStyle;curved=1;entryPerimeter=0;" parent="1" edge="1">
          <mxGeometry width="50" height="50" relative="1" as="geometry">
            <mxPoint x="1030" y="818" as="sourcePoint" />
            <mxPoint x="1000.0999999999999" y="827.2" as="targetPoint" />
            <Array as="points">
              <mxPoint x="1000" y="818" />
            </Array>
          </mxGeometry>
        </mxCell>
        <mxCell id="dmmhSpbr1uV-d9rVKhpj-23" value="" style="endArrow=none;startArrow=classic;html=1;rounded=0;exitX=0;exitY=0.5;exitDx=0;exitDy=0;exitPerimeter=0;entryX=1.001;entryY=0.684;entryDx=0;entryDy=0;endFill=0;edgeStyle=orthogonalEdgeStyle;curved=1;entryPerimeter=0;" parent="1" edge="1">
          <mxGeometry width="50" height="50" relative="1" as="geometry">
            <mxPoint x="999.0999999999999" y="831.1999999999998" as="sourcePoint" />
            <mxPoint x="1029" y="821.9999999999998" as="targetPoint" />
            <Array as="points">
              <mxPoint x="1029.1" y="831.1999999999998" />
            </Array>
          </mxGeometry>
        </mxCell>
        <mxCell id="kaKPPBhv6QyS-EkI_fyc-115" value="" style="strokeWidth=2;html=1;shape=mxgraph.flowchart.terminator;whiteSpace=wrap;strokeColor=#FF3333;" parent="1" vertex="1">
          <mxGeometry x="1070" y="599" width="70" height="30" as="geometry" />
        </mxCell>
        <mxCell id="dmmhSpbr1uV-d9rVKhpj-29" value="" style="endArrow=none;startArrow=classic;html=1;rounded=0;exitX=0;exitY=0.5;exitDx=0;exitDy=0;exitPerimeter=0;entryX=1.001;entryY=0.684;entryDx=0;entryDy=0;endFill=0;edgeStyle=orthogonalEdgeStyle;curved=1;entryPerimeter=0;" parent="1" edge="1">
          <mxGeometry width="50" height="50" relative="1" as="geometry">
            <mxPoint x="1030.1" y="616.1999999999998" as="sourcePoint" />
            <mxPoint x="1060" y="606.9999999999998" as="targetPoint" />
            <Array as="points">
              <mxPoint x="1070" y="616" />
              <mxPoint x="1070" y="607" />
            </Array>
          </mxGeometry>
        </mxCell>
        <mxCell id="dmmhSpbr1uV-d9rVKhpj-30" value="" style="endArrow=none;startArrow=classic;html=1;rounded=0;exitX=0;exitY=0.5;exitDx=0;exitDy=0;exitPerimeter=0;entryX=1.001;entryY=0.684;entryDx=0;entryDy=0;endFill=0;edgeStyle=orthogonalEdgeStyle;curved=1;entryPerimeter=0;" parent="1" edge="1">
          <mxGeometry width="50" height="50" relative="1" as="geometry">
            <mxPoint x="1061" y="607" as="sourcePoint" />
            <mxPoint x="1031.1" y="616.2" as="targetPoint" />
            <Array as="points">
              <mxPoint x="1015" y="607" />
              <mxPoint x="1015" y="616" />
            </Array>
          </mxGeometry>
        </mxCell>
        <mxCell id="dmmhSpbr1uV-d9rVKhpj-32" value="" style="endArrow=none;startArrow=classic;html=1;rounded=0;exitX=0;exitY=0.5;exitDx=0;exitDy=0;exitPerimeter=0;entryX=1.001;entryY=0.684;entryDx=0;entryDy=0;endFill=0;edgeStyle=orthogonalEdgeStyle;curved=1;entryPerimeter=0;" parent="1" edge="1">
          <mxGeometry width="50" height="50" relative="1" as="geometry">
            <mxPoint x="1056" y="620" as="sourcePoint" />
            <mxPoint x="1026.1" y="629.2" as="targetPoint" />
            <Array as="points">
              <mxPoint x="1010" y="620" />
              <mxPoint x="1010" y="629" />
            </Array>
          </mxGeometry>
        </mxCell>
        <mxCell id="kaKPPBhv6QyS-EkI_fyc-116" value="&lt;font style=&quot;font-size: 13px;&quot;&gt;FHIR Data&lt;/font&gt;" style="strokeWidth=2;html=1;shape=mxgraph.flowchart.terminator;whiteSpace=wrap;fontColor=#000000;strokeColor=#FF3333;" parent="1" vertex="1">
          <mxGeometry x="1060.25" y="610" width="73.75" height="30" as="geometry" />
        </mxCell>
        <mxCell id="dmmhSpbr1uV-d9rVKhpj-31" value="" style="endArrow=none;startArrow=classic;html=1;rounded=0;exitX=0;exitY=0.5;exitDx=0;exitDy=0;exitPerimeter=0;entryX=1.001;entryY=0.684;entryDx=0;entryDy=0;endFill=0;edgeStyle=orthogonalEdgeStyle;curved=1;entryPerimeter=0;" parent="1" edge="1">
          <mxGeometry width="50" height="50" relative="1" as="geometry">
            <mxPoint x="1024.1" y="629.1999999999998" as="sourcePoint" />
            <mxPoint x="1054" y="619.9999999999998" as="targetPoint" />
            <Array as="points">
              <mxPoint x="1060" y="629" />
              <mxPoint x="1060" y="620" />
            </Array>
          </mxGeometry>
        </mxCell>
        <mxCell id="dmmhSpbr1uV-d9rVKhpj-34" value="" style="endArrow=none;startArrow=classic;html=1;rounded=0;exitX=0;exitY=0.5;exitDx=0;exitDy=0;exitPerimeter=0;entryX=1.001;entryY=0.684;entryDx=0;entryDy=0;endFill=0;edgeStyle=orthogonalEdgeStyle;curved=1;entryPerimeter=0;" parent="1" edge="1">
          <mxGeometry width="50" height="50" relative="1" as="geometry">
            <mxPoint x="1066" y="596" as="sourcePoint" />
            <mxPoint x="1036.1" y="605.2" as="targetPoint" />
            <Array as="points">
              <mxPoint x="1020" y="596" />
              <mxPoint x="1020" y="605" />
            </Array>
          </mxGeometry>
        </mxCell>
        <mxCell id="dmmhSpbr1uV-d9rVKhpj-35" value="" style="endArrow=none;startArrow=classic;html=1;rounded=0;entryX=0.495;entryY=-0.031;entryDx=0;entryDy=0;entryPerimeter=0;endFill=0;edgeStyle=orthogonalEdgeStyle;curved=1;" parent="1" edge="1">
          <mxGeometry width="50" height="50" relative="1" as="geometry">
            <mxPoint x="1070.0040816326532" y="425.0040816326532" as="sourcePoint" />
            <mxPoint x="1075.0040816326532" y="401.0040816326532" as="targetPoint" />
            <Array as="points">
              <mxPoint x="1070.0040816326532" y="401.0040816326532" />
            </Array>
          </mxGeometry>
        </mxCell>
        <mxCell id="dmmhSpbr1uV-d9rVKhpj-36" value="" style="endArrow=none;startArrow=classic;html=1;rounded=0;endFill=0;edgeStyle=orthogonalEdgeStyle;curved=1;entryX=0.569;entryY=0.007;entryDx=0;entryDy=0;entryPerimeter=0;" parent="1" edge="1">
          <mxGeometry width="50" height="50" relative="1" as="geometry">
            <mxPoint x="1607" y="580" as="sourcePoint" />
            <mxPoint x="1599.999999999999" y="540.0000000000002" as="targetPoint" />
            <Array as="points">
              <mxPoint x="1606.8999999999992" y="540.4200000000001" />
            </Array>
          </mxGeometry>
        </mxCell>
        <mxCell id="dmmhSpbr1uV-d9rVKhpj-37" value="" style="endArrow=none;startArrow=classic;html=1;rounded=0;entryX=0.561;entryY=-0.001;entryDx=0;entryDy=0;endFill=0;edgeStyle=orthogonalEdgeStyle;curved=1;entryPerimeter=0;" parent="1" edge="1">
          <mxGeometry width="50" height="50" relative="1" as="geometry">
            <mxPoint x="1609.3200000000006" y="134.94000000000005" as="sourcePoint" />
            <mxPoint x="1604.0000000000007" y="100" as="targetPoint" />
            <Array as="points">
              <mxPoint x="1609.3200000000006" y="99.94000000000005" />
            </Array>
          </mxGeometry>
        </mxCell>
        <mxCell id="1wgABnsjHsFf7cCtaf_x-7" style="edgeStyle=orthogonalEdgeStyle;rounded=0;orthogonalLoop=1;jettySize=auto;html=1;entryX=0.5;entryY=1;entryDx=0;entryDy=0;endArrow=none;endFill=0;" parent="1" source="1wgABnsjHsFf7cCtaf_x-1" target="kaKPPBhv6QyS-EkI_fyc-159" edge="1">
          <mxGeometry relative="1" as="geometry" />
        </mxCell>
        <mxCell id="1wgABnsjHsFf7cCtaf_x-15" value="" style="edgeStyle=orthogonalEdgeStyle;rounded=0;orthogonalLoop=1;jettySize=auto;html=1;endArrow=none;endFill=0;" parent="1" source="1wgABnsjHsFf7cCtaf_x-1" edge="1">
          <mxGeometry relative="1" as="geometry">
            <mxPoint x="1159.9999999999998" y="705" as="targetPoint" />
          </mxGeometry>
        </mxCell>
        <mxCell id="1wgABnsjHsFf7cCtaf_x-1" value="NCPeH" style="rounded=0;whiteSpace=wrap;html=1;strokeWidth=2;" parent="1" vertex="1">
          <mxGeometry x="1300" y="675" width="120" height="60" as="geometry" />
        </mxCell>
        <mxCell id="1wgABnsjHsFf7cCtaf_x-11" value="" style="ellipse;whiteSpace=wrap;html=1;aspect=fixed;" parent="1" vertex="1">
          <mxGeometry x="1355" y="621" width="10" height="10" as="geometry" />
        </mxCell>
        <mxCell id="1wgABnsjHsFf7cCtaf_x-12" value="" style="endArrow=classic;html=1;rounded=0;" parent="1" edge="1">
          <mxGeometry width="50" height="50" relative="1" as="geometry">
            <mxPoint x="1345" y="622.5" as="sourcePoint" />
            <mxPoint x="1345" y="617.5" as="targetPoint" />
          </mxGeometry>
        </mxCell>
        <mxCell id="1wgABnsjHsFf7cCtaf_x-13" value="R" style="text;html=1;align=center;verticalAlign=middle;whiteSpace=wrap;rounded=0;" parent="1" vertex="1">
          <mxGeometry x="1340" y="630" width="10" height="10" as="geometry" />
        </mxCell>
        <mxCell id="1wgABnsjHsFf7cCtaf_x-16" value="" style="ellipse;whiteSpace=wrap;html=1;aspect=fixed;" parent="1" vertex="1">
          <mxGeometry x="1236" y="700" width="10" height="10" as="geometry" />
        </mxCell>
        <mxCell id="1wgABnsjHsFf7cCtaf_x-17" value="" style="endArrow=classic;html=1;rounded=0;" parent="1" edge="1">
          <mxGeometry width="50" height="50" relative="1" as="geometry">
            <mxPoint x="1228.8922530604611" y="693.5" as="sourcePoint" />
            <mxPoint x="1226" y="693.5" as="targetPoint" />
          </mxGeometry>
        </mxCell>
        <mxCell id="1wgABnsjHsFf7cCtaf_x-18" value="R" style="text;html=1;align=center;verticalAlign=middle;whiteSpace=wrap;rounded=0;" parent="1" vertex="1">
          <mxGeometry x="1238" y="689" width="6" height="10" as="geometry" />
        </mxCell>
        <mxCell id="1wgABnsjHsFf7cCtaf_x-19" value="SM-B" style="strokeWidth=2;html=1;shape=mxgraph.flowchart.terminator;whiteSpace=wrap;" parent="1" vertex="1">
          <mxGeometry x="1309" y="770" width="100" height="60" as="geometry" />
        </mxCell>
        <mxCell id="1wgABnsjHsFf7cCtaf_x-20" value="" style="endArrow=none;startArrow=classic;html=1;rounded=0;exitX=0.5;exitY=1;exitDx=0;exitDy=0;endFill=0;edgeStyle=orthogonalEdgeStyle;curved=1;entryX=0.444;entryY=0.012;entryDx=0;entryDy=0;entryPerimeter=0;" parent="1" target="1wgABnsjHsFf7cCtaf_x-19" edge="1">
          <mxGeometry width="50" height="50" relative="1" as="geometry">
            <mxPoint x="1350.0000000000002" y="735.9999999999998" as="sourcePoint" />
            <mxPoint x="1356.9" y="786.4199999999998" as="targetPoint" />
            <Array as="points">
              <mxPoint x="1350" y="770" />
              <mxPoint x="1354" y="770" />
            </Array>
          </mxGeometry>
        </mxCell>
        <mxCell id="1wgABnsjHsFf7cCtaf_x-21" value="" style="endArrow=none;startArrow=classic;html=1;rounded=0;endFill=0;edgeStyle=orthogonalEdgeStyle;curved=1;entryX=0.569;entryY=0.007;entryDx=0;entryDy=0;entryPerimeter=0;" parent="1" edge="1">
          <mxGeometry width="50" height="50" relative="1" as="geometry">
            <mxPoint x="1366" y="770" as="sourcePoint" />
            <mxPoint x="1358.999999999999" y="736.0000000000002" as="targetPoint" />
            <Array as="points">
              <mxPoint x="1365.8999999999992" y="736.4200000000001" />
            </Array>
          </mxGeometry>
        </mxCell>
        <mxCell id="1wgABnsjHsFf7cCtaf_x-24" value="" style="rounded=0;whiteSpace=wrap;html=1;dashed=1;strokeWidth=2;" parent="1" vertex="1">
          <mxGeometry x="1275" y="850" width="185" height="170" as="geometry" />
        </mxCell>
        <mxCell id="1wgABnsjHsFf7cCtaf_x-26" style="edgeStyle=orthogonalEdgeStyle;rounded=1;orthogonalLoop=1;jettySize=auto;html=1;exitX=1;exitY=0.5;exitDx=0;exitDy=0;entryX=1;entryY=0.5;entryDx=0;entryDy=0;curved=0;endArrow=none;endFill=0;" parent="1" source="1wgABnsjHsFf7cCtaf_x-22" target="1wgABnsjHsFf7cCtaf_x-23" edge="1">
          <mxGeometry relative="1" as="geometry" />
        </mxCell>
        <mxCell id="1wgABnsjHsFf7cCtaf_x-22" value="Forschungsdaten-&lt;br&gt;&lt;span style=&quot;background-color: initial;&quot;&gt;zentrum&lt;/span&gt;" style="rounded=0;whiteSpace=wrap;html=1;strokeWidth=2;" parent="1" vertex="1">
          <mxGeometry x="1304" y="882" width="120" height="60" as="geometry" />
        </mxCell>
        <mxCell id="1wgABnsjHsFf7cCtaf_x-23" value="Vertrauensstelle RKI" style="rounded=0;whiteSpace=wrap;html=1;strokeWidth=2;" parent="1" vertex="1">
          <mxGeometry x="1304" y="950" width="120" height="60" as="geometry" />
        </mxCell>
        <mxCell id="1wgABnsjHsFf7cCtaf_x-25" value="WANDA" style="text;html=1;align=center;verticalAlign=middle;whiteSpace=wrap;rounded=0;" parent="1" vertex="1">
          <mxGeometry x="1330" y="852" width="60" height="30" as="geometry" />
        </mxCell>
        <mxCell id="1wgABnsjHsFf7cCtaf_x-28" style="edgeStyle=orthogonalEdgeStyle;rounded=1;orthogonalLoop=1;jettySize=auto;html=1;exitX=1;exitY=0.326;exitDx=0;exitDy=0;entryX=-0.003;entryY=0.785;entryDx=0;entryDy=0;curved=0;endArrow=none;endFill=0;entryPerimeter=0;exitPerimeter=0;" parent="1" source="1wgABnsjHsFf7cCtaf_x-27" target="1wgABnsjHsFf7cCtaf_x-22" edge="1">
          <mxGeometry relative="1" as="geometry">
            <Array as="points">
              <mxPoint x="1240" y="878" />
              <mxPoint x="1240" y="930" />
              <mxPoint x="1304" y="930" />
            </Array>
          </mxGeometry>
        </mxCell>
        <mxCell id="1wgABnsjHsFf7cCtaf_x-29" style="edgeStyle=orthogonalEdgeStyle;rounded=1;orthogonalLoop=1;jettySize=auto;html=1;exitX=0.998;exitY=0.678;exitDx=0;exitDy=0;entryX=0;entryY=0.5;entryDx=0;entryDy=0;curved=0;endArrow=none;endFill=0;exitPerimeter=0;" parent="1" source="1wgABnsjHsFf7cCtaf_x-27" target="1wgABnsjHsFf7cCtaf_x-23" edge="1">
          <mxGeometry relative="1" as="geometry">
            <Array as="points">
              <mxPoint x="1200" y="892" />
              <mxPoint x="1200" y="980" />
            </Array>
          </mxGeometry>
        </mxCell>
        <mxCell id="1wgABnsjHsFf7cCtaf_x-27" value="Data Submission Service" style="rounded=0;whiteSpace=wrap;html=1;strokeWidth=2;" parent="1" vertex="1">
          <mxGeometry x="1050" y="865" width="99" height="40" as="geometry" />
        </mxCell>
        <mxCell id="1wgABnsjHsFf7cCtaf_x-39" value="" style="ellipse;whiteSpace=wrap;html=1;aspect=fixed;" parent="1" vertex="1">
          <mxGeometry x="1439" y="941" width="10" height="10" as="geometry" />
        </mxCell>
        <mxCell id="1wgABnsjHsFf7cCtaf_x-42" value="" style="ellipse;whiteSpace=wrap;html=1;aspect=fixed;" parent="1" vertex="1">
          <mxGeometry x="1195" y="934" width="10" height="10" as="geometry" />
        </mxCell>
        <mxCell id="1wgABnsjHsFf7cCtaf_x-43" value="" style="endArrow=classic;html=1;rounded=0;" parent="1" edge="1">
          <mxGeometry width="50" height="50" relative="1" as="geometry">
            <mxPoint x="1188.5474254742542" y="943.5000000000005" as="sourcePoint" />
            <mxPoint x="1188.5474254742542" y="948.5000000000005" as="targetPoint" />
          </mxGeometry>
        </mxCell>
        <mxCell id="1wgABnsjHsFf7cCtaf_x-44" value="R" style="text;html=1;align=center;verticalAlign=middle;whiteSpace=wrap;rounded=0;" parent="1" vertex="1">
          <mxGeometry x="1185" y="928" width="6" height="10" as="geometry" />
        </mxCell>
        <mxCell id="1wgABnsjHsFf7cCtaf_x-45" value="" style="ellipse;whiteSpace=wrap;html=1;aspect=fixed;" parent="1" vertex="1">
          <mxGeometry x="1235" y="891" width="10" height="10" as="geometry" />
        </mxCell>
        <mxCell id="TWeajM0d_0MuS6eklau9-2" value="" style="endArrow=classic;html=1;rounded=0;" parent="1" edge="1">
          <mxGeometry width="50" height="50" relative="1" as="geometry">
            <mxPoint x="1434" y="939" as="sourcePoint" />
            <mxPoint x="1434" y="934" as="targetPoint" />
          </mxGeometry>
        </mxCell>
        <mxCell id="TWeajM0d_0MuS6eklau9-3" value="R" style="text;html=1;align=center;verticalAlign=middle;whiteSpace=wrap;rounded=0;" parent="1" vertex="1">
          <mxGeometry x="1429" y="946.5" width="10" height="10" as="geometry" />
        </mxCell>
        <mxCell id="RU5jipZFT5xQElPnbbpy-1" value="" style="endArrow=classic;html=1;rounded=0;" parent="1" edge="1">
          <mxGeometry width="50" height="50" relative="1" as="geometry">
            <mxPoint x="1228.5474254742542" y="904.5000000000005" as="sourcePoint" />
            <mxPoint x="1228.5474254742542" y="909.5000000000005" as="targetPoint" />
          </mxGeometry>
        </mxCell>
        <mxCell id="RU5jipZFT5xQElPnbbpy-2" value="R" style="text;html=1;align=center;verticalAlign=middle;whiteSpace=wrap;rounded=0;" parent="1" vertex="1">
          <mxGeometry x="1225" y="889" width="6" height="10" as="geometry" />
        </mxCell>
        <mxCell id="RU5jipZFT5xQElPnbbpy-3" value="&lt;font style=&quot;font-size: 13px;&quot;&gt;Email Management&lt;/font&gt;" style="rounded=0;whiteSpace=wrap;html=1;strokeWidth=2;" parent="1" vertex="1">
          <mxGeometry x="781.25" y="778" width="97.5" height="50" as="geometry" />
        </mxCell>
      </root>
    </mxGraphModel>
  </diagram>
</mxfile>
